<svg width="26" height="23" viewBox="0 0 26 23" fill="none" xmlns="http://www.w3.org/2000/svg">
<path d="M12.6667 16.1667V22M5.66667 22L12.6667 16.1667L19.6667 22M23.1667 1V10.5667C23.1667 12.5268 23.1667 13.5069 22.7852 14.2556C22.4496 14.9142 21.9142 15.4496 21.2556 15.7852C20.5069 16.1667 19.5269 16.1667 17.5667 16.1667H7.76667C5.80648 16.1667 4.82639 16.1667 4.0777 15.7852C3.41913 15.4496 2.8837 14.9142 2.54814 14.2556C2.16667 13.5069 2.16667 12.5268 2.16667 10.5667V1M8 8V11.5M12.6667 5.66667V11.5M17.3333 10.3333V11.5M24.3333 1H1" stroke="#777777" stroke-width="2" stroke-linecap="round" stroke-linejoin="round"/>
</svg>
