<svg width="25" height="30" viewBox="0 0 25 30" fill="none" xmlns="http://www.w3.org/2000/svg">
<path d="M20.3863 15.954C20.4163 13.6165 21.6413 11.4577 23.6326 10.234C22.3713 8.43147 20.3326 7.33022 18.1338 7.26147C15.8201 7.01897 13.5776 8.64522 12.3988 8.64522C11.1976 8.64522 9.38258 7.28522 7.42758 7.32522C4.85633 7.40897 2.51632 8.83522 1.26507 11.084C-1.39868 15.6965 0.58757 22.4765 3.14007 26.2052C4.41758 28.0315 5.90883 30.0702 7.86258 29.999C9.77383 29.9202 10.4876 28.7802 12.7938 28.7802C15.0788 28.7802 15.7488 29.999 17.7413 29.9527C19.7913 29.919 21.0838 28.119 22.3163 26.2752C23.2338 24.974 23.9401 23.5365 24.4076 22.0152C21.9726 20.9852 20.3888 18.599 20.3863 15.954Z" fill="#2C5B0F"/>
<path d="M16.6226 4.80876C17.7401 3.46625 18.2914 1.74125 18.1576 0C16.4501 0.18 14.8714 0.996251 13.7389 2.28625C12.6201 3.56 12.0526 5.22501 12.1626 6.91751C13.8939 6.93501 15.5376 6.15751 16.6226 4.80876Z" fill="#2C5B0F"/>
</svg>
