<svg width="27" height="27" viewBox="0 0 27 27" fill="none" xmlns="http://www.w3.org/2000/svg">
<path fill-rule="evenodd" clip-rule="evenodd" d="M1.5621 1.5621C0 3.12419 0 5.63835 0 10.6667V16C0 21.0283 0 23.5425 1.5621 25.1046C3.12419 26.6667 5.63835 26.6667 10.6667 26.6667H16C21.0283 26.6667 23.5425 26.6667 25.1046 25.1046C26.6667 23.5425 26.6667 21.0283 26.6667 16V10.6667C26.6667 5.63835 26.6667 3.12419 25.1046 1.5621C23.5425 0 21.0283 0 16 0H10.6667C5.63835 0 3.12419 0 1.5621 1.5621ZM14.0099 19.6297L14 19.6349V8.37703L14.0292 8.36055C14.767 7.93369 15.958 7.29807 16.9333 7.02772C17.6539 6.82798 18.5874 6.73595 19.409 6.6956C20.4825 6.64288 21.3333 7.52724 21.3333 8.60205V15.8811C21.3333 16.9916 20.4276 17.8867 19.3201 17.9693C18.6452 18.0196 17.9167 18.1044 17.3333 18.2469C16.2179 18.5194 14.8232 19.2012 14.0099 19.6297ZM5.33333 8.66199V15.8811C5.33333 16.9916 6.23912 17.8867 7.34654 17.9693C8.02144 18.0196 8.74997 18.1044 9.33333 18.2469C10.4487 18.5194 11.8434 19.2012 12.6567 19.6297L12.6667 19.6349V8.41459C12.6508 8.407 12.6351 8.3991 12.6195 8.3909C11.8013 7.96146 10.4319 7.29613 9.33333 7.02772C8.74122 6.88304 7.99956 6.79791 7.31622 6.74788C6.22051 6.66765 5.33333 7.56335 5.33333 8.66199Z" fill="#4A8AFF"/>
</svg>
