<svg width="32" height="32" viewBox="0 0 32 32" fill="none" xmlns="http://www.w3.org/2000/svg">
<path d="M8.18622 2.57588C7.10116 1.97615 5.82716 1.99001 4.74902 2.58455L17.385 14.2412L21.63 9.99628L8.18622 2.57588Z" fill="#2C5B0F"/>
<path d="M3.48533 3.77686C3.1768 4.28126 3 4.85846 3 5.47032V26.5234C3 27.1162 3.1612 27.6813 3.4524 28.1753L16.1595 15.4682L3.48533 3.77686Z" fill="#2C5B0F"/>
<path d="M27.2578 13.1024L23.2087 10.8682L18.6587 15.4164L24.2348 20.5592L27.2595 18.89C28.348 18.2868 28.9998 17.2052 28.9998 15.9954C28.998 14.7855 28.348 13.7039 27.2578 13.1024Z" fill="#2C5B0F"/>
<path d="M17.4336 16.6436L4.69189 29.3853C5.24483 29.7008 5.85149 29.8672 6.46163 29.8672C7.05096 29.8672 7.64376 29.7181 8.18629 29.4182L22.6371 21.4432L17.4336 16.6436Z" fill="#2C5B0F"/>
</svg>
