<svg width="21" height="20" viewBox="0 0 21 20" fill="none" xmlns="http://www.w3.org/2000/svg">
<path d="M9.45843 1.57368C9.68892 1.10674 9.80416 0.873269 9.96061 0.798675C10.0967 0.733775 10.2549 0.733775 10.391 0.798675C10.5474 0.873269 10.6627 1.10674 10.8932 1.57368L13.0798 6.00364C13.1479 6.1415 13.1819 6.21042 13.2316 6.26394C13.2757 6.31132 13.3285 6.34971 13.3871 6.37698C13.4533 6.40778 13.5294 6.4189 13.6815 6.44113L18.5728 7.15607C19.0878 7.23135 19.3454 7.269 19.4646 7.3948C19.5683 7.50425 19.617 7.65466 19.5973 7.80414C19.5746 7.97594 19.3882 8.15754 19.0153 8.52074L15.4772 11.9668C15.3669 12.0742 15.3118 12.1279 15.2762 12.1918C15.2447 12.2484 15.2245 12.3106 15.2167 12.3749C15.2079 12.4475 15.2209 12.5234 15.2469 12.6751L16.0817 17.5425C16.1698 18.0559 16.2138 18.3125 16.1311 18.4649C16.0591 18.5974 15.9311 18.6903 15.7828 18.7178C15.6124 18.7494 15.3819 18.6282 14.9209 18.3858L10.5482 16.0862C10.4119 16.0145 10.3438 15.9787 10.272 15.9646C10.2085 15.9522 10.1431 15.9522 10.0796 15.9646C10.0078 15.9787 9.93968 16.0145 9.80344 16.0862L5.4307 18.3858C4.9697 18.6282 4.73919 18.7494 4.56875 18.7178C4.42046 18.6903 4.2925 18.5974 4.22052 18.4649C4.13778 18.3125 4.18181 18.0558 4.26986 17.5425L5.10467 12.6751C5.13069 12.5234 5.14371 12.4475 5.1349 12.3749C5.1271 12.3106 5.10689 12.2484 5.07539 12.1918C5.0398 12.1279 4.98466 12.0742 4.87437 11.9668L1.33634 8.52074C0.963444 8.15754 0.776996 7.97594 0.754308 7.80414C0.734567 7.65466 0.783335 7.50425 0.887032 7.3948C1.00622 7.269 1.26375 7.23135 1.77882 7.15607L6.67009 6.44113C6.82221 6.4189 6.89826 6.40778 6.9645 6.37698C7.02315 6.34971 7.07594 6.31132 7.11997 6.26394C7.16969 6.21042 7.20371 6.1415 7.27175 6.00364L9.45843 1.57368Z" fill="#FFAE00" stroke="#FFAE00" stroke-width="1.5" stroke-linecap="round" stroke-linejoin="round"/>
</svg>
