<svg width="20" height="20" viewBox="0 0 20 20" fill="none" xmlns="http://www.w3.org/2000/svg">
<path d="M18.3332 7.49998L13.3332 12.5M13.3332 7.49998L18.3332 12.5M8.02843 3.63805L5.39036 6.27612C5.24624 6.42025 5.17417 6.49231 5.09007 6.54385C5.01551 6.58954 4.93423 6.62321 4.8492 6.64362C4.75329 6.66665 4.65138 6.66665 4.44755 6.66665H2.99984C2.53313 6.66665 2.29977 6.66665 2.12151 6.75747C1.96471 6.83737 1.83723 6.96485 1.75733 7.12165C1.6665 7.29991 1.6665 7.53327 1.6665 7.99998V12C1.6665 12.4667 1.6665 12.7 1.75733 12.8783C1.83723 13.0351 1.96471 13.1626 2.12151 13.2425C2.29977 13.3333 2.53313 13.3333 2.99984 13.3333H4.44755C4.65138 13.3333 4.75329 13.3333 4.8492 13.3563C4.93423 13.3768 5.01551 13.4104 5.09007 13.4561C5.17417 13.5076 5.24624 13.5797 5.39036 13.7238L8.02843 16.3619C8.38541 16.7189 8.5639 16.8974 8.71715 16.9094C8.85011 16.9199 8.98005 16.8661 9.06667 16.7647C9.1665 16.6478 9.1665 16.3954 9.1665 15.8905V4.10946C9.1665 3.60461 9.1665 3.35219 9.06667 3.2353C8.98005 3.13388 8.85011 3.08006 8.71715 3.09052C8.5639 3.10258 8.38541 3.28107 8.02843 3.63805Z" stroke="white" stroke-width="1.5" stroke-linecap="round" stroke-linejoin="round"/>
</svg>
