<svg width="28" height="28" viewBox="0 0 28 28" fill="none" xmlns="http://www.w3.org/2000/svg">
<path d="M2.33325 14L13.5825 19.6247C13.7356 19.7012 13.8121 19.7395 13.8924 19.7545C13.9634 19.7679 14.0364 19.7679 14.1075 19.7545C14.1878 19.7395 14.2643 19.7012 14.4173 19.6247L25.6666 14M2.33325 19.8334L13.5825 25.458C13.7356 25.5345 13.8121 25.5728 13.8924 25.5878C13.9634 25.6012 14.0364 25.6012 14.1075 25.5878C14.1878 25.5728 14.2643 25.5345 14.4173 25.458L25.6666 19.8334M2.33325 8.1667L13.5825 2.54207C13.7356 2.46555 13.8121 2.42728 13.8924 2.41222C13.9634 2.39889 14.0364 2.39889 14.1075 2.41222C14.1878 2.42728 14.2643 2.46555 14.4173 2.54207L25.6666 8.1667L14.4173 13.7913C14.2643 13.8679 14.1878 13.9061 14.1075 13.9212C14.0364 13.9345 13.9634 13.9345 13.8924 13.9212C13.8121 13.9061 13.7356 13.8679 13.5825 13.7913L2.33325 8.1667Z" stroke="#777777" stroke-width="2" stroke-linecap="round" stroke-linejoin="round"/>
</svg>
