<svg width="20" height="20" viewBox="0 0 20 20" fill="none" xmlns="http://www.w3.org/2000/svg">
<path d="M2.5 5.5C2.5 4.08579 2.5 3.37868 2.93934 2.93934C3.37868 2.5 4.08579 2.5 5.5 2.5C6.91421 2.5 7.62132 2.5 8.06066 2.93934C8.5 3.37868 8.5 4.08579 8.5 5.5V14.5C8.5 15.9142 8.5 16.6213 8.06066 17.0607C7.62132 17.5 6.91421 17.5 5.5 17.5C4.08579 17.5 3.37868 17.5 2.93934 17.0607C2.5 16.6213 2.5 15.9142 2.5 14.5V5.5Z" fill="white"/>
<path d="M11.5 5.5C11.5 4.08579 11.5 3.37868 11.9393 2.93934C12.3787 2.5 13.0858 2.5 14.5 2.5C15.9142 2.5 16.6213 2.5 17.0607 2.93934C17.5 3.37868 17.5 4.08579 17.5 5.5V14.5C17.5 15.9142 17.5 16.6213 17.0607 17.0607C16.6213 17.5 15.9142 17.5 14.5 17.5C13.0858 17.5 12.3787 17.5 11.9393 17.0607C11.5 16.6213 11.5 15.9142 11.5 14.5V5.5Z" fill="white"/>
</svg>
