<svg width="141" height="141" viewBox="0 0 141 141" fill="none" xmlns="http://www.w3.org/2000/svg">
<path d="M78.2552 9.26781C78.2552 9.75932 78.0818 10.1783 77.7352 10.5249C77.3885 10.8715 76.9695 11.045 76.478 11.045H74.8624C74.371 11.045 73.952 10.8715 73.6053 10.5249C73.2586 10.1783 73.0852 9.75932 73.0852 9.26781V7.65219C73.0852 7.16083 73.2586 6.74175 73.6053 6.3951C73.952 6.0484 74.371 5.875 74.8624 5.875H76.478C76.9696 5.875 77.3886 6.04835 77.7352 6.39505C78.0818 6.7418 78.2552 7.16083 78.2552 7.65219V9.26781Z" fill="#2C5B0F"/>
<path d="M93.765 7.65219C93.765 7.16078 93.5916 6.7417 93.2449 6.39505C92.8983 6.0484 92.4792 5.875 91.9878 5.875H90.3722C89.8807 5.875 89.4617 6.04835 89.115 6.39505C88.7684 6.74175 88.595 7.16078 88.595 7.65219V9.26781C88.595 9.29475 88.5983 9.33518 88.6051 9.389H88.595V11.045H93.765V9.389H93.7549C93.7617 9.33518 93.765 9.2948 93.765 9.26781V7.65219Z" fill="#2C5B0F"/>
<path d="M52.4051 12.8224V11.0452H49.0123C48.5209 11.0452 48.1018 11.2185 47.7552 11.5652C47.4085 11.9119 47.2351 12.3309 47.2351 12.8224V14.438C47.2351 14.9294 47.4085 15.3485 47.7552 15.6951C48.1019 16.0418 48.5209 16.2152 49.0123 16.2152H52.4051V12.8224Z" fill="#2C5B0F"/>
<path d="M55.7976 11.0452H52.4048V16.2152H55.7976C56.289 16.2152 56.7081 16.0418 57.0547 15.6951C57.4014 15.3485 57.5748 14.9294 57.5748 14.438V12.8224C57.5748 12.3309 57.4014 11.9119 57.0547 11.5652C56.7081 11.2186 56.289 11.0452 55.7976 11.0452Z" fill="#2C5B0F"/>
<path d="M67.9149 12.8224C67.9149 12.3309 67.7415 11.9119 67.3948 11.5652C67.0482 11.2186 66.6291 11.0452 66.1377 11.0452H64.5221C64.0307 11.0452 63.6116 11.2185 63.2649 11.5652C62.9183 11.9119 62.7449 12.3309 62.7449 12.8224V14.438C62.7449 14.4649 62.7482 14.5053 62.755 14.5592H62.7449V16.2152H67.9149V14.5592H67.9048C67.9116 14.5053 67.9149 14.465 67.9149 14.438V12.8224Z" fill="#2C5B0F"/>
<path d="M83.4251 12.8224V11.0452H80.0323C79.5409 11.0452 79.1218 11.2185 78.7752 11.5652C78.4285 11.9119 78.2551 12.3309 78.2551 12.8224V16.2152H83.4251V12.8224Z" fill="#2C5B0F"/>
<path d="M88.595 11.0452H83.425V16.2152H88.595V11.0452Z" fill="#2C5B0F"/>
<path d="M93.765 11.0452H88.595V16.2152H93.765V11.0452Z" fill="#2C5B0F"/>
<path d="M67.9048 17.8711H67.9149V16.2151H62.7449V17.8711H62.755C62.7482 17.925 62.7449 17.9653 62.7449 17.9923V19.6079C62.7449 20.0993 62.9182 20.5184 63.2649 20.865C63.6116 21.2117 64.0307 21.3851 64.5221 21.3851H66.1377C66.6291 21.3851 67.0482 21.2117 67.3948 20.865C67.7415 20.5184 67.9149 20.0993 67.9149 19.6079V17.9923C67.9149 17.9653 67.9116 17.925 67.9048 17.8711Z" fill="#2C5B0F"/>
<path d="M78.2552 17.9923V16.2151H74.8624C74.371 16.2151 73.9519 16.3884 73.6053 16.7351C73.2586 17.0818 73.0852 17.5009 73.0852 17.9923V21.3851H78.2552V17.9923Z" fill="#2C5B0F"/>
<path d="M83.4251 16.2151H78.2551V21.3851H83.4251V16.2151Z" fill="#2C5B0F"/>
<path d="M93.7549 17.8711H93.765V16.2151H88.595V17.8711H88.6051C88.5983 17.925 88.595 17.9653 88.595 17.9923V19.6079C88.595 20.0993 88.7683 20.5184 89.115 20.865C89.4617 21.2117 89.8807 21.3851 90.3722 21.3851H91.9878C92.4792 21.3851 92.8983 21.2117 93.2449 20.865C93.5916 20.5184 93.765 20.0993 93.765 19.6079V17.9923C93.765 17.9653 93.7617 17.925 93.7549 17.8711Z" fill="#2C5B0F"/>
<path d="M57.5748 23.162V21.3848H54.182C53.6906 21.3848 53.2715 21.5581 52.9248 21.9048C52.5782 22.2515 52.4048 22.6705 52.4048 23.162V26.5548H57.5748V23.162Z" fill="#2C5B0F"/>
<path d="M62.7449 23.162C62.7449 22.6705 62.5715 22.2515 62.2249 21.9048C61.8783 21.5582 61.4592 21.3848 60.9678 21.3848H57.575V26.5548H62.7449V23.162Z" fill="#2C5B0F"/>
<path d="M78.2552 21.3848H73.0852V24.7776C73.0852 25.269 73.2586 25.6881 73.6053 26.0347C73.952 26.3814 74.371 26.5548 74.8624 26.5548H78.2552V21.3848Z" fill="#2C5B0F"/>
<path d="M83.4251 21.3848H78.2551V26.5548H83.4251V21.3848Z" fill="#2C5B0F"/>
<path d="M86.8179 21.3848H83.425V26.5548H86.8179C87.3093 26.5548 87.7283 26.3814 88.075 26.0347C88.4216 25.6881 88.595 25.269 88.595 24.7776V23.162C88.595 22.6705 88.4216 22.2515 88.075 21.9048C87.7283 21.5582 87.3093 21.3848 86.8179 21.3848Z" fill="#2C5B0F"/>
<path d="M52.4051 28.3321V26.5549H49.0123C48.5209 26.5549 48.1018 26.7283 47.7552 27.075C47.4085 27.4217 47.2351 27.8407 47.2351 28.3321V29.9477C47.2351 30.4392 47.4085 30.8582 47.7552 31.2049C48.1019 31.5515 48.5209 31.7249 49.0123 31.7249H52.4051V28.3321Z" fill="#2C5B0F"/>
<path d="M57.5748 26.5549H52.4048V31.7249H57.5748V26.5549Z" fill="#2C5B0F"/>
<path d="M62.7449 26.5549H57.575V31.7249H62.7449V26.5549Z" fill="#2C5B0F"/>
<path d="M67.9149 26.5549H62.7449V31.7249H67.9149V26.5549Z" fill="#2C5B0F"/>
<path d="M71.3076 26.5549H67.9148V31.7249H71.3076C71.799 31.7249 72.2181 31.5515 72.5647 31.2049C72.9114 30.8582 73.0848 30.4392 73.0848 29.9477V28.3321C73.0848 27.8407 72.9114 27.4216 72.5647 27.075C72.2181 26.7283 71.799 26.5549 71.3076 26.5549Z" fill="#2C5B0F"/>
<path d="M83.415 28.2109H83.4251V26.5549H78.2551V28.2109H78.2652C78.2585 28.2648 78.2551 28.3052 78.2551 28.3321V29.9477C78.2551 30.4392 78.4285 30.8582 78.7752 31.2049C79.1219 31.5515 79.5409 31.7249 80.0323 31.7249H81.6479C82.1393 31.7249 82.5584 31.5515 82.9051 31.2049C83.2517 30.8582 83.4251 30.4392 83.4251 29.9477V28.3321C83.4251 28.3052 83.4219 28.2648 83.415 28.2109Z" fill="#2C5B0F"/>
<path d="M78.2552 35.1177C78.2552 35.6092 78.0818 36.0282 77.7352 36.3748C77.3885 36.7214 76.9695 36.8949 76.478 36.8949H74.8624C74.371 36.8949 73.952 36.7214 73.6053 36.3748C73.2586 36.0282 73.0852 35.6092 73.0852 35.1177V33.502C73.0852 33.0107 73.2586 32.5916 73.6053 32.245C73.952 31.8983 74.371 31.7249 74.8624 31.7249H76.478C76.9696 31.7249 77.3886 31.8982 77.7352 32.2449C78.0818 32.5917 78.2552 33.0107 78.2552 33.502V35.1177Z" fill="#2C5B0F"/>
<path d="M52.4051 40.2881C52.4051 40.7796 52.2317 41.1986 51.8851 41.5452C51.5384 41.8918 51.1194 42.0653 50.6279 42.0653H49.0123C48.5209 42.0653 48.1019 41.8918 47.7552 41.5452C47.4085 41.1986 47.2351 40.7796 47.2351 40.2881V38.6725C47.2351 38.1811 47.4085 37.762 47.7552 37.4154C48.1019 37.0687 48.5209 36.8953 49.0123 36.8953H50.6279C51.1195 36.8953 51.5385 37.0686 51.8851 37.4153C52.2317 37.7621 52.4051 38.1811 52.4051 38.6725V40.2881Z" fill="#2C5B0F"/>
<path d="M62.7449 40.2881C62.7449 40.7796 62.5715 41.1986 62.2249 41.5452C61.8783 41.8918 61.4593 42.0653 60.9678 42.0653H59.3521C58.8608 42.0653 58.4417 41.8918 58.0951 41.5452C57.7484 41.1986 57.575 40.7796 57.575 40.2881V38.6725C57.575 38.1811 57.7483 37.762 58.095 37.4154C58.4418 37.0687 58.8608 36.8953 59.3521 36.8953H60.9678C61.4593 36.8953 61.8784 37.0686 62.2249 37.4153C62.5715 37.7621 62.7449 38.1811 62.7449 38.6725V40.2881Z" fill="#2C5B0F"/>
<path d="M73.0848 38.6725C73.0848 38.181 72.9114 37.762 72.5647 37.4153C72.2181 37.0687 71.799 36.8953 71.3076 36.8953H69.692C69.2006 36.8953 68.7815 37.0686 68.4348 37.4153C68.0882 37.762 67.9148 38.181 67.9148 38.6725V40.2881C67.9148 40.315 67.9182 40.3554 67.9249 40.4093H67.9148V42.0653H73.0848V40.4093H73.0747C73.0815 40.3554 73.0848 40.3151 73.0848 40.2881V38.6725Z" fill="#2C5B0F"/>
<path d="M83.4251 38.6725C83.4251 38.181 83.2517 37.762 82.9051 37.4153C82.5584 37.0687 82.1393 36.8953 81.6479 36.8953H80.0323C79.5409 36.8953 79.1218 37.0686 78.7752 37.4153C78.4285 37.762 78.2551 38.181 78.2551 38.6725V40.2881C78.2551 40.315 78.2585 40.3554 78.2652 40.4093H78.2551V42.0653H83.4251V40.4093H83.415C83.4219 40.3554 83.4251 40.3151 83.4251 40.2881V38.6725Z" fill="#2C5B0F"/>
<path d="M93.765 38.6725C93.765 38.181 93.5916 37.762 93.2449 37.4153C92.8983 37.0687 92.4792 36.8953 91.9878 36.8953H90.3722C89.8807 36.8953 89.4617 37.0686 89.115 37.4153C88.7684 37.762 88.595 38.181 88.595 38.6725V40.2881C88.595 40.315 88.5983 40.3554 88.6051 40.4093H88.595V42.0653H93.765V40.4093H93.7549C93.7617 40.3554 93.765 40.3151 93.765 40.2881V38.6725Z" fill="#2C5B0F"/>
<path d="M67.9149 43.8421V42.0649H64.5221C64.0307 42.0649 63.6116 42.2383 63.2649 42.585C62.9183 42.9317 62.7449 43.3507 62.7449 43.8421V45.4578C62.7449 45.9492 62.9182 46.3682 63.2649 46.7149C63.6116 47.0615 64.0307 47.2349 64.5221 47.2349H67.9149V43.8421Z" fill="#2C5B0F"/>
<path d="M73.0848 42.0649H67.9148V47.2349H73.0848V42.0649Z" fill="#2C5B0F"/>
<path d="M78.2552 42.0649H73.0852V47.2349H78.2552V42.0649Z" fill="#2C5B0F"/>
<path d="M83.4251 42.0649H78.2551V47.2349H83.4251V42.0649Z" fill="#2C5B0F"/>
<path d="M93.765 42.0649H88.595V47.2349H93.765V42.0649Z" fill="#2C5B0F"/>
<path d="M11.045 49.0123C11.045 48.5209 10.8716 48.1018 10.5249 47.7552C10.1783 47.4085 9.75922 47.2351 9.26781 47.2351H7.65219C7.16078 47.2351 6.7417 47.4085 6.39505 47.7552C6.0484 48.1019 5.875 48.5209 5.875 49.0123V50.6279C5.875 50.6549 5.87836 50.6953 5.88508 50.7491H5.875V52.4051H11.045V50.7491H11.0349C11.0417 50.6953 11.045 50.6549 11.045 50.6279V49.0123Z" fill="#2C5B0F"/>
<path d="M21.3851 50.6279C21.3851 51.1194 21.2116 51.5384 20.865 51.8851C20.5184 52.2317 20.0994 52.4051 19.6079 52.4051H17.9923C17.5009 52.4051 17.0818 52.2317 16.7352 51.8851C16.3885 51.5384 16.2151 51.1194 16.2151 50.6279V49.0123C16.2151 48.5209 16.3884 48.1019 16.7351 47.7552C17.0819 47.4085 17.5009 47.2351 17.9923 47.2351H19.6079C20.0995 47.2351 20.5185 47.4085 20.865 47.7552C21.2117 48.1019 21.3851 48.5209 21.3851 49.0123V50.6279Z" fill="#2C5B0F"/>
<path d="M31.7249 50.6279C31.7249 51.1194 31.5515 51.5384 31.2049 51.8851C30.8582 52.2317 30.4393 52.4051 29.9477 52.4051H28.3321C27.8408 52.4051 27.4217 52.2317 27.075 51.8851C26.7283 51.5384 26.5549 51.1194 26.5549 50.6279V49.0123C26.5549 48.5209 26.7283 48.1019 27.075 47.7552C27.4217 47.4085 27.8408 47.2351 28.3321 47.2351H29.9477C30.4393 47.2351 30.8583 47.4085 31.2049 47.7552C31.5515 48.1019 31.7249 48.5209 31.7249 49.0123V50.6279Z" fill="#2C5B0F"/>
<path d="M42.0653 50.6279C42.0653 51.1194 41.8918 51.5384 41.5452 51.8851C41.1986 52.2317 40.7796 52.4051 40.2881 52.4051H38.6725C38.1811 52.4051 37.762 52.2317 37.4154 51.8851C37.0687 51.5384 36.8953 51.1194 36.8953 50.6279V49.0123C36.8953 48.5209 37.0686 48.1019 37.4153 47.7552C37.7621 47.4085 38.1811 47.2351 38.6725 47.2351H40.2881C40.7796 47.2351 41.1987 47.4085 41.5452 47.7552C41.8919 48.1019 42.0653 48.5209 42.0653 49.0123V50.6279Z" fill="#2C5B0F"/>
<path d="M57.5748 49.0123V47.2351H54.182C53.6906 47.2351 53.2715 47.4085 52.9248 47.7552C52.5782 48.1019 52.4048 48.5209 52.4048 49.0123V50.6279C52.4048 51.1193 52.5781 51.5384 52.9248 51.8851C53.2715 52.2317 53.6906 52.4051 54.182 52.4051H57.5748V49.0123Z" fill="#2C5B0F"/>
<path d="M60.9678 47.2351H57.575V52.4051H60.9678C61.4592 52.4051 61.8783 52.2317 62.2249 51.8851C62.5715 51.5384 62.7449 51.1193 62.7449 50.6279V49.0123C62.7449 48.5209 62.5715 48.1018 62.2249 47.7552C61.8783 47.4085 61.4592 47.2351 60.9678 47.2351Z" fill="#2C5B0F"/>
<path d="M83.4251 47.2351H78.2551V52.4051H83.4251V47.2351Z" fill="#2C5B0F"/>
<path d="M88.595 47.2351H83.425V52.4051H88.595V47.2351Z" fill="#2C5B0F"/>
<path d="M93.765 47.2351H88.595V52.4051H91.9878C92.4792 52.4051 92.8983 52.2317 93.2449 51.8851C93.5916 51.5384 93.765 51.1193 93.765 50.6279V47.2351Z" fill="#2C5B0F"/>
<path d="M114.445 50.6279C114.445 51.1194 114.272 51.5384 113.925 51.8851C113.578 52.2317 113.159 52.4051 112.668 52.4051H111.052C110.561 52.4051 110.142 52.2317 109.795 51.8851C109.449 51.5384 109.275 51.1194 109.275 50.6279V49.0123C109.275 48.5209 109.448 48.1019 109.795 47.7552C110.142 47.4085 110.561 47.2351 111.052 47.2351H112.668C113.16 47.2351 113.579 47.4085 113.925 47.7552C114.272 48.1019 114.445 48.5209 114.445 49.0123V50.6279Z" fill="#2C5B0F"/>
<path d="M129.955 50.6279C129.955 51.1194 129.781 51.5384 129.435 51.8851C129.088 52.2317 128.669 52.4051 128.178 52.4051H126.562C126.071 52.4051 125.652 52.2317 125.305 51.8851C124.958 51.5384 124.785 51.1194 124.785 50.6279V49.0123C124.785 48.5209 124.958 48.1019 125.305 47.7552C125.652 47.4085 126.071 47.2351 126.562 47.2351H128.178C128.669 47.2351 129.088 47.4085 129.435 47.7552C129.782 48.1019 129.955 48.5209 129.955 49.0123V50.6279Z" fill="#2C5B0F"/>
<path d="M11.045 52.4048H5.875V55.7976C5.875 56.289 6.04835 56.7081 6.39505 57.0547C6.74175 57.4014 7.16078 57.5748 7.65219 57.5748H11.045V52.4048Z" fill="#2C5B0F"/>
<path d="M14.438 52.4048H11.0452V57.5748H14.438C14.9294 57.5748 15.3485 57.4014 15.6951 57.0547C16.0418 56.7081 16.2152 56.289 16.2152 55.7976V54.182C16.2152 53.6906 16.0418 53.2715 15.6951 52.9248C15.3485 52.5782 14.9294 52.4048 14.438 52.4048Z" fill="#2C5B0F"/>
<path d="M26.5548 54.182C26.5548 53.6906 26.3814 53.2715 26.0347 52.9248C25.6881 52.5782 25.269 52.4048 24.7776 52.4048H23.162C22.6705 52.4048 22.2515 52.5781 21.9048 52.9248C21.5582 53.2715 21.3848 53.6906 21.3848 54.182V55.7976C21.3848 55.8245 21.3881 55.865 21.3948 55.9188H21.3848V57.5748H26.5548V55.9188H26.5447C26.5515 55.865 26.5548 55.8246 26.5548 55.7976V54.182Z" fill="#2C5B0F"/>
<path d="M36.8949 55.7976C36.8949 56.2891 36.7214 56.7081 36.3748 57.0547C36.0282 57.4013 35.6092 57.5748 35.1177 57.5748H33.502C33.0107 57.5748 32.5916 57.4013 32.245 57.0547C31.8983 56.7081 31.7249 56.2891 31.7249 55.7976V54.182C31.7249 53.6906 31.8982 53.2715 32.2449 52.9249C32.5917 52.5782 33.0107 52.4048 33.502 52.4048H35.1177C35.6092 52.4048 36.0283 52.5781 36.3748 52.9248C36.7215 53.2716 36.8949 53.6906 36.8949 54.182V55.7976Z" fill="#2C5B0F"/>
<path d="M47.2349 54.182V52.4048H43.8421C43.3507 52.4048 42.9316 52.5781 42.585 52.9248C42.2383 53.2715 42.0649 53.6906 42.0649 54.182V55.7976C42.0649 56.289 42.2383 56.7081 42.585 57.0547C42.9317 57.4014 43.3507 57.5748 43.8421 57.5748H47.2349V54.182Z" fill="#2C5B0F"/>
<path d="M52.4051 54.182C52.4051 53.6906 52.2317 53.2715 51.8851 52.9248C51.5384 52.5782 51.1193 52.4048 50.6279 52.4048H47.2351V57.5748H52.4051V54.182Z" fill="#2C5B0F"/>
<path d="M67.9149 54.182C67.9149 53.6906 67.7415 53.2715 67.3948 52.9248C67.0482 52.5782 66.6291 52.4048 66.1377 52.4048H64.5221C64.0307 52.4048 63.6116 52.5781 63.2649 52.9248C62.9183 53.2715 62.7449 53.6906 62.7449 54.182V55.7976C62.7449 55.8245 62.7482 55.865 62.755 55.9188H62.7449V57.5748H67.9149V55.9188H67.9048C67.9116 55.865 67.9149 55.8246 67.9149 55.7976V54.182Z" fill="#2C5B0F"/>
<path d="M83.4251 52.4048H78.2551V55.7976C78.2551 56.289 78.4285 56.7081 78.7752 57.0547C79.1219 57.4014 79.5409 57.5748 80.0323 57.5748H83.4251V52.4048Z" fill="#2C5B0F"/>
<path d="M88.595 52.4048H83.425V57.5748H86.8179C87.3093 57.5748 87.7283 57.4014 88.075 57.0547C88.4216 56.7081 88.595 56.289 88.595 55.7976V52.4048Z" fill="#2C5B0F"/>
<path d="M98.9349 54.182V52.4048H95.5421C95.0507 52.4048 94.6316 52.5781 94.2849 52.9248C93.9383 53.2715 93.7649 53.6906 93.7649 54.182V57.5748H98.9349V54.182Z" fill="#2C5B0F"/>
<path d="M102.328 52.4048H98.9351V57.5748H102.328C102.819 57.5748 103.238 57.4014 103.585 57.0547C103.932 56.7081 104.105 56.289 104.105 55.7976V54.182C104.105 53.6906 103.932 53.2715 103.585 52.9248C103.238 52.5782 102.819 52.4048 102.328 52.4048Z" fill="#2C5B0F"/>
<path d="M135.125 54.182C135.125 53.6906 134.951 53.2715 134.605 52.9248C134.258 52.5782 133.839 52.4048 133.348 52.4048H131.732C131.241 52.4048 130.822 52.5781 130.475 52.9248C130.128 53.2715 129.955 53.6906 129.955 54.182V55.7976C129.955 55.8245 129.958 55.865 129.965 55.9188H129.955V57.5748H135.125V55.9188H135.115C135.122 55.865 135.125 55.8246 135.125 55.7976V54.182Z" fill="#2C5B0F"/>
<path d="M26.5548 57.575H21.3848V62.7449H26.5548V57.575Z" fill="#2C5B0F"/>
<path d="M31.7249 59.3521C31.7249 58.8607 31.5515 58.4416 31.2049 58.095C30.8582 57.7484 30.4392 57.575 29.9477 57.575H26.5549V62.7449H31.7249V59.3521Z" fill="#2C5B0F"/>
<path d="M42.0653 60.9678C42.0653 61.4593 41.8918 61.8783 41.5452 62.2249C41.1986 62.5715 40.7796 62.7449 40.2881 62.7449H38.6725C38.1811 62.7449 37.762 62.5715 37.4154 62.2249C37.0687 61.8783 36.8953 61.4593 36.8953 60.9678V59.3521C36.8953 58.8608 37.0686 58.4417 37.4153 58.0951C37.7621 57.7484 38.1811 57.575 38.6725 57.575H40.2881C40.7796 57.575 41.1987 57.7483 41.5452 58.095C41.8919 58.4418 42.0653 58.8608 42.0653 59.3521V60.9678Z" fill="#2C5B0F"/>
<path d="M52.4051 57.575H47.2351V62.7449H52.4051V57.575Z" fill="#2C5B0F"/>
<path d="M57.5748 57.575H52.4048V62.7449H57.5748V57.575Z" fill="#2C5B0F"/>
<path d="M62.7449 57.575H57.575V62.7449H62.7449V57.575Z" fill="#2C5B0F"/>
<path d="M67.9149 57.575H62.7449V62.7449H66.1377C66.6291 62.7449 67.0482 62.5715 67.3948 62.2249C67.7415 61.8783 67.9149 61.4592 67.9149 60.9678V57.575Z" fill="#2C5B0F"/>
<path d="M78.2552 60.9678C78.2552 61.4593 78.0818 61.8783 77.7352 62.2249C77.3885 62.5715 76.9695 62.7449 76.478 62.7449H74.8624C74.371 62.7449 73.952 62.5715 73.6053 62.2249C73.2586 61.8783 73.0852 61.4593 73.0852 60.9678V59.3521C73.0852 58.8608 73.2586 58.4417 73.6053 58.0951C73.952 57.7484 74.371 57.575 74.8624 57.575H76.478C76.9696 57.575 77.3886 57.7483 77.7352 58.095C78.0818 58.4418 78.2552 58.8608 78.2552 59.3521V60.9678Z" fill="#2C5B0F"/>
<path d="M98.9248 59.231H98.9349V57.575H93.7649V59.231H93.775C93.7683 59.2848 93.7649 59.3252 93.7649 59.3521V60.9678C93.7649 61.4592 93.9382 61.8783 94.2849 62.2249C94.6316 62.5715 95.0507 62.7449 95.5421 62.7449H97.1577C97.6491 62.7449 98.0682 62.5715 98.4148 62.2249C98.7615 61.8783 98.9349 61.4592 98.9349 60.9678V59.3521C98.9349 59.3252 98.9316 59.2848 98.9248 59.231Z" fill="#2C5B0F"/>
<path d="M114.445 59.3521C114.445 58.8607 114.272 58.4416 113.925 58.095C113.578 57.7484 113.159 57.575 112.668 57.575H111.052C110.561 57.575 110.142 57.7483 109.795 58.095C109.449 58.4417 109.275 58.8607 109.275 59.3521V60.9678C109.275 60.9947 109.279 61.0351 109.285 61.0889H109.275V62.7449H114.445V61.0889H114.435C114.442 61.0351 114.445 60.9948 114.445 60.9678V59.3521Z" fill="#2C5B0F"/>
<path d="M124.785 59.3521V57.575H121.392C120.901 57.575 120.482 57.7483 120.135 58.095C119.789 58.4417 119.615 58.8607 119.615 59.3521V60.9678C119.615 61.4592 119.789 61.8783 120.135 62.2249C120.482 62.5715 120.901 62.7449 121.392 62.7449H124.785V59.3521Z" fill="#2C5B0F"/>
<path d="M129.955 57.575H124.785V62.7449H129.955V57.575Z" fill="#2C5B0F"/>
<path d="M135.125 57.575H129.955V62.7449H133.348C133.839 62.7449 134.258 62.5715 134.605 62.2249C134.951 61.8783 135.125 61.4592 135.125 60.9678V57.575Z" fill="#2C5B0F"/>
<path d="M26.5548 62.7449H21.3848V66.1377C21.3848 66.6291 21.5581 67.0482 21.9048 67.3948C22.2515 67.7415 22.6705 67.9149 23.162 67.9149H26.5548V62.7449Z" fill="#2C5B0F"/>
<path d="M31.7249 62.7449H26.5549V67.9149H29.9477C30.4392 67.9149 30.8582 67.7415 31.2049 67.3948C31.5515 67.0482 31.7249 66.6291 31.7249 66.1377V62.7449Z" fill="#2C5B0F"/>
<path d="M52.4051 62.7449H47.2351V66.1377C47.2351 66.6291 47.4085 67.0482 47.7552 67.3948C48.1019 67.7415 48.5209 67.9149 49.0123 67.9149H52.4051V62.7449Z" fill="#2C5B0F"/>
<path d="M57.5748 62.7449H52.4048V67.9149H57.5748V62.7449Z" fill="#2C5B0F"/>
<path d="M62.7449 62.7449H57.575V67.9149H62.7449V62.7449Z" fill="#2C5B0F"/>
<path d="M73.0848 64.5221C73.0848 64.0307 72.9114 63.6116 72.5647 63.2649C72.2181 62.9183 71.799 62.7449 71.3076 62.7449H69.692C69.2006 62.7449 68.7815 62.9182 68.4348 63.2649C68.0882 63.6116 67.9148 64.0307 67.9148 64.5221V66.1377C67.9148 66.1646 67.9182 66.205 67.9249 66.2589H67.9148V67.9149H73.0848V66.2589H73.0747C73.0815 66.205 73.0848 66.1647 73.0848 66.1377V64.5221Z" fill="#2C5B0F"/>
<path d="M93.765 64.5221C93.765 64.0307 93.5916 63.6116 93.2449 63.2649C92.8983 62.9183 92.4792 62.7449 91.9878 62.7449H90.3722C89.8807 62.7449 89.4617 62.9182 89.115 63.2649C88.7684 63.6116 88.595 64.0307 88.595 64.5221V66.1377C88.595 66.1646 88.5983 66.205 88.6051 66.2589H88.595V67.9149H93.765V66.2589H93.7549C93.7617 66.205 93.765 66.1647 93.765 66.1377V64.5221Z" fill="#2C5B0F"/>
<path d="M114.435 64.4009H114.445V62.7449H109.275V64.4009H109.285C109.279 64.4547 109.275 64.4951 109.275 64.5221V66.1377C109.275 66.6291 109.448 67.0482 109.795 67.3948C110.142 67.7415 110.561 67.9149 111.052 67.9149H112.668C113.159 67.9149 113.578 67.7415 113.925 67.3948C114.272 67.0482 114.445 66.6291 114.445 66.1377V64.5221C114.445 64.4951 114.442 64.4547 114.435 64.4009Z" fill="#2C5B0F"/>
<path d="M129.955 62.7449H124.785V67.9149H129.955V62.7449Z" fill="#2C5B0F"/>
<path d="M11.045 69.692V67.9148H7.65219C7.16078 67.9148 6.7417 68.0881 6.39505 68.4348C6.0484 68.7815 5.875 69.2006 5.875 69.692V71.3076C5.875 71.799 6.04835 72.2181 6.39505 72.5647C6.74175 72.9114 7.16078 73.0848 7.65219 73.0848H11.045V69.692Z" fill="#2C5B0F"/>
<path d="M16.2152 67.9148H11.0452V73.0848H16.2152V67.9148Z" fill="#2C5B0F"/>
<path d="M21.3851 69.692C21.3851 69.2006 21.2117 68.7815 20.865 68.4348C20.5184 68.0882 20.0993 67.9148 19.6079 67.9148H16.2151V73.0848H21.3851V69.692Z" fill="#2C5B0F"/>
<path d="M36.8949 69.692V67.9148H33.502C33.0106 67.9148 32.5916 68.0881 32.2449 68.4348C31.8983 68.7815 31.7249 69.2006 31.7249 69.692V71.3076C31.7249 71.799 31.8982 72.2181 32.2449 72.5647C32.5916 72.9114 33.0106 73.0848 33.502 73.0848H36.8949V69.692Z" fill="#2C5B0F"/>
<path d="M40.2881 67.9148H36.8953V73.0848H40.2881C40.7795 73.0848 41.1986 72.9114 41.5452 72.5647C41.8919 72.2181 42.0653 71.799 42.0653 71.3076V69.692C42.0653 69.2006 41.8919 68.7815 41.5452 68.4348C41.1986 68.0882 40.7795 67.9148 40.2881 67.9148Z" fill="#2C5B0F"/>
<path d="M62.7449 67.9148H57.575V71.3076C57.575 71.799 57.7483 72.2181 58.095 72.5647C58.4417 72.9114 58.8607 73.0848 59.3521 73.0848H62.7449V67.9148Z" fill="#2C5B0F"/>
<path d="M67.9149 67.9148H62.7449V73.0848H67.9149V67.9148Z" fill="#2C5B0F"/>
<path d="M73.0848 67.9148H67.9148V73.0848H73.0848V67.9148Z" fill="#2C5B0F"/>
<path d="M88.595 69.692V67.9148H85.2022C84.7108 67.9148 84.2917 68.0881 83.9451 68.4348C83.5985 68.7815 83.425 69.2006 83.425 69.692V71.3076C83.425 71.799 83.5984 72.2181 83.9451 72.5647C84.2918 72.9114 84.7108 73.0848 85.2022 73.0848H88.595V69.692Z" fill="#2C5B0F"/>
<path d="M93.765 67.9148H88.595V73.0848H93.765V67.9148Z" fill="#2C5B0F"/>
<path d="M98.9349 67.9148H93.7649V73.0848H98.9349V67.9148Z" fill="#2C5B0F"/>
<path d="M104.105 69.692C104.105 69.2006 103.932 68.7815 103.585 68.4348C103.238 68.0882 102.819 67.9148 102.328 67.9148H98.9351V73.0848H104.105V69.692Z" fill="#2C5B0F"/>
<path d="M119.615 69.692C119.615 69.2006 119.441 68.7815 119.095 68.4348C118.748 68.0882 118.329 67.9148 117.838 67.9148H116.222C115.731 67.9148 115.312 68.0881 114.965 68.4348C114.618 68.7815 114.445 69.2006 114.445 69.692V71.3076C114.445 71.3345 114.448 71.375 114.455 71.4288H114.445V73.0848H119.615V71.4288H119.605C119.612 71.375 119.615 71.3346 119.615 71.3076V69.692Z" fill="#2C5B0F"/>
<path d="M129.955 67.9148H124.785V71.3076C124.785 71.799 124.958 72.2181 125.305 72.5647C125.652 72.9114 126.071 73.0848 126.562 73.0848H129.955V67.9148Z" fill="#2C5B0F"/>
<path d="M135.125 69.692C135.125 69.2006 134.951 68.7815 134.605 68.4348C134.258 68.0882 133.839 67.9148 133.348 67.9148H129.955V73.0848H135.125V69.692Z" fill="#2C5B0F"/>
<path d="M16.2152 73.0852H11.0452V76.478C11.0452 76.9694 11.2185 77.3885 11.5652 77.7352C11.9119 78.0818 12.3309 78.2552 12.8224 78.2552H16.2152V73.0852Z" fill="#2C5B0F"/>
<path d="M21.3851 73.0852H16.2151V78.2552H21.3851V73.0852Z" fill="#2C5B0F"/>
<path d="M26.5548 73.0852H21.3848V78.2552H26.5548V73.0852Z" fill="#2C5B0F"/>
<path d="M29.9477 73.0852H26.5549V78.2552H29.9477C30.4392 78.2552 30.8582 78.0818 31.2049 77.7352C31.5515 77.3885 31.7249 76.9694 31.7249 76.478V74.8624C31.7249 74.371 31.5515 73.9519 31.2049 73.6053C30.8582 73.2586 30.4392 73.0852 29.9477 73.0852Z" fill="#2C5B0F"/>
<path d="M52.4051 74.8624V73.0852H49.0123C48.5209 73.0852 48.1018 73.2586 47.7552 73.6053C47.4085 73.952 47.2351 74.371 47.2351 74.8624V76.478C47.2351 76.9694 47.4085 77.3885 47.7552 77.7352C48.1019 78.0818 48.5209 78.2552 49.0123 78.2552H52.4051V74.8624Z" fill="#2C5B0F"/>
<path d="M57.5748 74.8624C57.5748 74.371 57.4014 73.9519 57.0547 73.6053C56.7081 73.2586 56.289 73.0852 55.7976 73.0852H52.4048V78.2552H57.5748V74.8624Z" fill="#2C5B0F"/>
<path d="M67.9149 73.0852H62.7449V78.2552H67.9149V73.0852Z" fill="#2C5B0F"/>
<path d="M73.0848 73.0852H67.9148V78.2552H73.0848V73.0852Z" fill="#2C5B0F"/>
<path d="M76.478 73.0852H73.0852V78.2552H76.478C76.9694 78.2552 77.3885 78.0818 77.7352 77.7352C78.0818 77.3885 78.2552 76.9694 78.2552 76.478V74.8624C78.2552 74.371 78.0818 73.9519 77.7352 73.6053C77.3885 73.2586 76.9694 73.0852 76.478 73.0852Z" fill="#2C5B0F"/>
<path d="M104.105 73.0852H98.9351V78.2552H104.105V73.0852Z" fill="#2C5B0F"/>
<path d="M119.605 74.7412H119.615V73.0852H114.445V74.7412H114.455C114.448 74.7951 114.445 74.8355 114.445 74.8624V76.478C114.445 76.9694 114.618 77.3885 114.965 77.7352C115.312 78.0818 115.731 78.2552 116.222 78.2552H117.838C118.329 78.2552 118.748 78.0818 119.095 77.7352C119.441 77.3885 119.615 76.9694 119.615 76.478V74.8624C119.615 74.8355 119.612 74.7951 119.605 74.7412Z" fill="#2C5B0F"/>
<path d="M135.125 73.0852H129.955V78.2552H135.125V73.0852Z" fill="#2C5B0F"/>
<path d="M11.045 81.6482C11.045 82.1397 10.8715 82.5587 10.5249 82.9053C10.1783 83.2519 9.75932 83.4254 9.26781 83.4254H7.65219C7.16083 83.4254 6.74175 83.2519 6.3951 82.9053C6.0484 82.5587 5.875 82.1397 5.875 81.6482V80.0326C5.875 79.5412 6.04835 79.1221 6.39505 78.7755C6.7418 78.4288 7.16083 78.2554 7.65219 78.2554H9.26781C9.75938 78.2554 10.1784 78.4287 10.5249 78.7754C10.8716 79.1222 11.045 79.5412 11.045 80.0326V81.6482Z" fill="#2C5B0F"/>
<path d="M26.5447 79.9114H26.5548V78.2554H21.3848V79.9114H21.3948C21.3881 79.9652 21.3848 80.0056 21.3848 80.0326V81.6482C21.3848 82.1396 21.5581 82.5587 21.9048 82.9053C22.2515 83.252 22.6705 83.4254 23.162 83.4254H24.7776C25.269 83.4254 25.6881 83.252 26.0347 82.9053C26.3814 82.5587 26.5548 82.1396 26.5548 81.6482V80.0326C26.5548 80.0056 26.5515 79.9652 26.5447 79.9114Z" fill="#2C5B0F"/>
<path d="M42.0653 80.0326V78.2554H38.6725C38.181 78.2554 37.762 78.4287 37.4153 78.7754C37.0687 79.1221 36.8953 79.5411 36.8953 80.0326V81.6482C36.8953 82.1396 37.0686 82.5587 37.4153 82.9053C37.762 83.252 38.181 83.4254 38.6725 83.4254H42.0653V80.0326Z" fill="#2C5B0F"/>
<path d="M45.4578 78.2554H42.0649V83.4254H45.4578C45.9492 83.4254 46.3682 83.252 46.7149 82.9053C47.0615 82.5587 47.2349 82.1396 47.2349 81.6482V80.0326C47.2349 79.5411 47.0615 79.1221 46.7149 78.7754C46.3682 78.4288 45.9492 78.2554 45.4578 78.2554Z" fill="#2C5B0F"/>
<path d="M57.5748 78.2554H52.4048V83.4254H57.5748V78.2554Z" fill="#2C5B0F"/>
<path d="M67.9149 78.2554H62.7449V81.6482C62.7449 82.1396 62.9182 82.5587 63.2649 82.9053C63.6116 83.252 64.0307 83.4254 64.5221 83.4254H67.9149V78.2554Z" fill="#2C5B0F"/>
<path d="M73.0848 78.2554H67.9148V83.4254H73.0848V78.2554Z" fill="#2C5B0F"/>
<path d="M83.4251 80.0326C83.4251 79.5411 83.2517 79.1221 82.9051 78.7754C82.5584 78.4288 82.1393 78.2554 81.6479 78.2554H80.0323C79.5409 78.2554 79.1218 78.4287 78.7752 78.7754C78.4285 79.1221 78.2551 79.5411 78.2551 80.0326V81.6482C78.2551 81.6751 78.2585 81.7155 78.2652 81.7694H78.2551V83.4254H83.4251V81.7694H83.415C83.4219 81.7155 83.4251 81.6752 83.4251 81.6482V80.0326Z" fill="#2C5B0F"/>
<path d="M93.765 81.6482C93.765 82.1397 93.5915 82.5587 93.2449 82.9053C92.8983 83.2519 92.4793 83.4254 91.9878 83.4254H90.3722C89.8808 83.4254 89.4617 83.2519 89.1151 82.9053C88.7684 82.5587 88.595 82.1397 88.595 81.6482V80.0326C88.595 79.5412 88.7683 79.1221 89.115 78.7755C89.4618 78.4288 89.8808 78.2554 90.3722 78.2554H91.9878C92.4793 78.2554 92.8984 78.4287 93.2449 78.7754C93.5916 79.1222 93.765 79.5412 93.765 80.0326V81.6482Z" fill="#2C5B0F"/>
<path d="M104.105 78.2554H98.9351V83.4254H104.105V78.2554Z" fill="#2C5B0F"/>
<path d="M107.498 78.2554H104.105V83.4254H107.498C107.989 83.4254 108.408 83.252 108.755 82.9053C109.101 82.5587 109.275 82.1396 109.275 81.6482V80.0326C109.275 79.5411 109.101 79.1221 108.755 78.7754C108.408 78.4288 107.989 78.2554 107.498 78.2554Z" fill="#2C5B0F"/>
<path d="M124.785 80.0326V78.2554H121.392C120.901 78.2554 120.482 78.4287 120.135 78.7754C119.789 79.1221 119.615 79.5411 119.615 80.0326V81.6482C119.615 82.1396 119.789 82.5587 120.135 82.9053C120.482 83.252 120.901 83.4254 121.392 83.4254H124.785V80.0326Z" fill="#2C5B0F"/>
<path d="M129.955 78.2554H124.785V83.4254H129.955V78.2554Z" fill="#2C5B0F"/>
<path d="M135.125 78.2554H129.955V83.4254H133.348C133.839 83.4254 134.258 83.252 134.605 82.9053C134.951 82.5587 135.125 82.1396 135.125 81.6482V78.2554Z" fill="#2C5B0F"/>
<path d="M16.2152 86.8176C16.2152 87.3091 16.0417 87.7281 15.6951 88.0748C15.3485 88.4214 14.9295 88.5948 14.438 88.5948H12.8224C12.331 88.5948 11.9119 88.4214 11.5653 88.0748C11.2186 87.7281 11.0452 87.3091 11.0452 86.8176V85.202C11.0452 84.7106 11.2185 84.2916 11.5652 83.9449C11.912 83.5982 12.331 83.4248 12.8224 83.4248H14.438C14.9295 83.4248 15.3486 83.5982 15.6951 83.9449C16.0418 84.2916 16.2152 84.7106 16.2152 85.202V86.8176Z" fill="#2C5B0F"/>
<path d="M36.8949 85.202C36.8949 84.7106 36.7215 84.2915 36.3748 83.9449C36.0282 83.5982 35.6091 83.4248 35.1177 83.4248H33.502C33.0106 83.4248 32.5916 83.5982 32.2449 83.9449C31.8983 84.2916 31.7249 84.7106 31.7249 85.202V86.8176C31.7249 86.8446 31.7282 86.885 31.7349 86.9388H31.7249V88.5948H36.8949V86.9388H36.8848C36.8916 86.885 36.8949 86.8446 36.8949 86.8176V85.202Z" fill="#2C5B0F"/>
<path d="M52.4051 85.202V83.4248H49.0123C48.5209 83.4248 48.1018 83.5982 47.7552 83.9449C47.4085 84.2916 47.2351 84.7106 47.2351 85.202V86.8176C47.2351 87.309 47.4085 87.7281 47.7552 88.0748C48.1019 88.4214 48.5209 88.5948 49.0123 88.5948H52.4051V85.202Z" fill="#2C5B0F"/>
<path d="M57.5748 83.4248H52.4048V88.5948H55.7976C56.289 88.5948 56.7081 88.4214 57.0547 88.0748C57.4014 87.7281 57.5748 87.309 57.5748 86.8176V83.4248Z" fill="#2C5B0F"/>
<path d="M73.0848 83.4248H67.9148V86.8176C67.9148 87.309 68.0881 87.7281 68.4348 88.0748C68.7815 88.4214 69.2006 88.5948 69.692 88.5948H73.0848V83.4248Z" fill="#2C5B0F"/>
<path d="M78.2552 83.4248H73.0852V88.5948H78.2552V83.4248Z" fill="#2C5B0F"/>
<path d="M83.4251 83.4248H78.2551V88.5948H83.4251V83.4248Z" fill="#2C5B0F"/>
<path d="M104.105 83.4248H98.9351V88.5948H104.105V83.4248Z" fill="#2C5B0F"/>
<path d="M114.445 85.202C114.445 84.7106 114.272 84.2915 113.925 83.9449C113.578 83.5982 113.159 83.4248 112.668 83.4248H111.052C110.561 83.4248 110.142 83.5982 109.795 83.9449C109.449 84.2916 109.275 84.7106 109.275 85.202V86.8176C109.275 86.8446 109.279 86.885 109.285 86.9388H109.275V88.5948H114.445V86.9388H114.435C114.442 86.885 114.445 86.8446 114.445 86.8176V85.202Z" fill="#2C5B0F"/>
<path d="M129.945 85.0808H129.955V83.4248H124.785V85.0808H124.795C124.788 85.1347 124.785 85.1751 124.785 85.202V86.8176C124.785 87.309 124.958 87.7281 125.305 88.0748C125.652 88.4214 126.071 88.5948 126.562 88.5948H128.178C128.669 88.5948 129.088 88.4214 129.435 88.0748C129.782 87.7281 129.955 87.309 129.955 86.8176V85.202C129.955 85.1751 129.952 85.1347 129.945 85.0808Z" fill="#2C5B0F"/>
<path d="M11.045 91.988C11.045 92.4795 10.8715 92.8985 10.5249 93.2452C10.1783 93.5918 9.75932 93.7652 9.26781 93.7652H7.65219C7.16083 93.7652 6.74175 93.5918 6.3951 93.2452C6.0484 92.8985 5.875 92.4795 5.875 91.988V90.3724C5.875 89.881 6.04835 89.462 6.39505 89.1153C6.7418 88.7686 7.16083 88.5952 7.65219 88.5952H9.26781C9.75938 88.5952 10.1784 88.7686 10.5249 89.1153C10.8716 89.462 11.045 89.881 11.045 90.3724V91.988Z" fill="#2C5B0F"/>
<path d="M21.3851 91.988C21.3851 92.4795 21.2116 92.8985 20.865 93.2452C20.5184 93.5918 20.0994 93.7652 19.6079 93.7652H17.9923C17.5009 93.7652 17.0818 93.5918 16.7352 93.2452C16.3885 92.8985 16.2151 92.4795 16.2151 91.988V90.3724C16.2151 89.881 16.3884 89.462 16.7351 89.1153C17.0819 88.7686 17.5009 88.5952 17.9923 88.5952H19.6079C20.0995 88.5952 20.5185 88.7686 20.865 89.1153C21.2117 89.462 21.3851 89.881 21.3851 90.3724V91.988Z" fill="#2C5B0F"/>
<path d="M36.8949 88.5952H31.7249V91.988C31.7249 92.4794 31.8982 92.8985 32.2449 93.2452C32.5916 93.5918 33.0106 93.7652 33.502 93.7652H36.8949V88.5952Z" fill="#2C5B0F"/>
<path d="M42.0653 88.5952H36.8953V93.7652H42.0653V88.5952Z" fill="#2C5B0F"/>
<path d="M45.4578 88.5952H42.0649V93.7652H45.4578C45.9492 93.7652 46.3682 93.5918 46.7149 93.2452C47.0615 92.8985 47.2349 92.4794 47.2349 91.988V90.3724C47.2349 89.881 47.0615 89.4619 46.7149 89.1153C46.3682 88.7686 45.9492 88.5952 45.4578 88.5952Z" fill="#2C5B0F"/>
<path d="M62.7449 90.3724V88.5952H59.3521C58.8607 88.5952 58.4416 88.7686 58.095 89.1153C57.7484 89.462 57.575 89.881 57.575 90.3724V91.988C57.575 92.4794 57.7483 92.8985 58.095 93.2452C58.4417 93.5918 58.8607 93.7652 59.3521 93.7652H62.7449V90.3724Z" fill="#2C5B0F"/>
<path d="M67.9149 90.3724C67.9149 89.881 67.7415 89.4619 67.3948 89.1153C67.0482 88.7686 66.6291 88.5952 66.1377 88.5952H62.7449V93.7652H67.9149V90.3724Z" fill="#2C5B0F"/>
<path d="M83.4251 88.5952H78.2551V93.7652H83.4251V88.5952Z" fill="#2C5B0F"/>
<path d="M88.595 88.5952H83.425V93.7652H88.595V88.5952Z" fill="#2C5B0F"/>
<path d="M93.765 88.5952H88.595V93.7652H93.765V88.5952Z" fill="#2C5B0F"/>
<path d="M98.9349 88.5952H93.7649V93.7652H98.9349V88.5952Z" fill="#2C5B0F"/>
<path d="M104.105 88.5952H98.9351V93.7652H104.105V88.5952Z" fill="#2C5B0F"/>
<path d="M109.275 88.5952H104.105V93.7652H109.275V88.5952Z" fill="#2C5B0F"/>
<path d="M114.445 88.5952H109.275V93.7652H114.445V88.5952Z" fill="#2C5B0F"/>
<path d="M119.615 90.3724C119.615 89.881 119.441 89.4619 119.095 89.1153C118.748 88.7686 118.329 88.5952 117.838 88.5952H114.445V93.7652H119.615V90.3724Z" fill="#2C5B0F"/>
<path d="M52.4051 97.1579C52.4051 97.6495 52.2317 98.0684 51.8851 98.4151C51.5384 98.7617 51.1194 98.9351 50.6279 98.9351H49.0123C48.5209 98.9351 48.1019 98.7617 47.7552 98.4151C47.4085 98.0684 47.2351 97.6495 47.2351 97.1579V95.5423C47.2351 95.051 47.4085 94.6319 47.7552 94.2852C48.1019 93.9385 48.5209 93.7651 49.0123 93.7651H50.6279C51.1195 93.7651 51.5385 93.9385 51.8851 94.2852C52.2317 94.6319 52.4051 95.051 52.4051 95.5423V97.1579Z" fill="#2C5B0F"/>
<path d="M67.9048 95.4211H67.9149V93.7651H62.7449V95.4211H62.755C62.7482 95.475 62.7449 95.5154 62.7449 95.5423V97.1579C62.7449 97.6494 62.9182 98.0684 63.2649 98.4151C63.6116 98.7617 64.0307 98.9351 64.5221 98.9351H66.1377C66.6291 98.9351 67.0482 98.7617 67.3948 98.4151C67.7415 98.0684 67.9149 97.6494 67.9149 97.1579V95.5423C67.9149 95.5154 67.9116 95.475 67.9048 95.4211Z" fill="#2C5B0F"/>
<path d="M83.415 95.4211H83.4251V93.7651H78.2551V95.4211H78.2652C78.2585 95.475 78.2551 95.5154 78.2551 95.5423V97.1579C78.2551 97.6494 78.4285 98.0684 78.7752 98.4151C79.1219 98.7617 79.5409 98.9351 80.0323 98.9351H81.6479C82.1393 98.9351 82.5584 98.7617 82.9051 98.4151C83.2517 98.0684 83.4251 97.6494 83.4251 97.1579V95.5423C83.4251 95.5154 83.4219 95.475 83.415 95.4211Z" fill="#2C5B0F"/>
<path d="M93.765 93.7651H88.595V98.9351H93.765V93.7651Z" fill="#2C5B0F"/>
<path d="M114.445 93.7651H109.275V98.9351H114.445V93.7651Z" fill="#2C5B0F"/>
<path d="M119.615 93.7651H114.445V98.9351H119.615V93.7651Z" fill="#2C5B0F"/>
<path d="M129.955 95.5423V93.7651H126.562C126.071 93.7651 125.652 93.9385 125.305 94.2852C124.958 94.6319 124.785 95.0509 124.785 95.5423V98.9351H129.955V95.5423Z" fill="#2C5B0F"/>
<path d="M135.125 95.5423C135.125 95.0509 134.951 94.6318 134.605 94.2852C134.258 93.9385 133.839 93.7651 133.348 93.7651H129.955V98.9351H135.125V95.5423Z" fill="#2C5B0F"/>
<path d="M57.5748 102.328C57.5748 102.819 57.4013 103.238 57.0547 103.585C56.7081 103.932 56.2891 104.105 55.7976 104.105H54.182C53.6906 104.105 53.2715 103.932 52.9249 103.585C52.5782 103.238 52.4048 102.819 52.4048 102.328V100.712C52.4048 100.221 52.5781 99.8018 52.9248 99.4552C53.2716 99.1085 53.6906 98.9351 54.182 98.9351H55.7976C56.2892 98.9351 56.7082 99.1084 57.0547 99.4551C57.4014 99.8019 57.5748 100.221 57.5748 100.712V102.328Z" fill="#2C5B0F"/>
<path d="M78.2552 102.328C78.2552 102.819 78.0818 103.238 77.7352 103.585C77.3885 103.932 76.9695 104.105 76.478 104.105H74.8624C74.371 104.105 73.952 103.932 73.6053 103.585C73.2586 103.238 73.0852 102.819 73.0852 102.328V100.712C73.0852 100.221 73.2586 99.8018 73.6053 99.4552C73.952 99.1085 74.371 98.9351 74.8624 98.9351H76.478C76.9696 98.9351 77.3886 99.1084 77.7352 99.4551C78.0818 99.8019 78.2552 100.221 78.2552 100.712V102.328Z" fill="#2C5B0F"/>
<path d="M88.595 100.712V98.9351H85.2022C84.7108 98.9351 84.2917 99.1084 83.9451 99.4551C83.5985 99.8018 83.425 100.221 83.425 100.712V102.328C83.425 102.819 83.5984 103.238 83.9451 103.585C84.2918 103.932 84.7108 104.105 85.2022 104.105H88.595V100.712Z" fill="#2C5B0F"/>
<path d="M93.765 98.9351H88.595V104.105H93.765V98.9351Z" fill="#2C5B0F"/>
<path d="M104.105 102.328C104.105 102.819 103.932 103.238 103.585 103.585C103.238 103.932 102.819 104.105 102.328 104.105H100.712C100.221 104.105 99.8018 103.932 99.4552 103.585C99.1085 103.238 98.9351 102.819 98.9351 102.328V100.712C98.9351 100.221 99.1084 99.8018 99.4551 99.4552C99.8019 99.1085 100.221 98.9351 100.712 98.9351H102.328C102.819 98.9351 103.238 99.1084 103.585 99.4551C103.932 99.8019 104.105 100.221 104.105 100.712V102.328Z" fill="#2C5B0F"/>
<path d="M114.445 98.9351H109.275V104.105H114.445V98.9351Z" fill="#2C5B0F"/>
<path d="M119.615 98.9351H114.445V104.105H119.615V98.9351Z" fill="#2C5B0F"/>
<path d="M129.955 98.9351H124.785V102.328C124.785 102.819 124.958 103.238 125.305 103.585C125.652 103.932 126.071 104.105 126.562 104.105H129.955V98.9351Z" fill="#2C5B0F"/>
<path d="M135.125 98.9351H129.955V104.105H135.125V98.9351Z" fill="#2C5B0F"/>
<path d="M62.7449 105.882V104.105H59.3521C58.8607 104.105 58.4416 104.278 58.095 104.625C57.7484 104.972 57.575 105.391 57.575 105.882V109.275H62.7449V105.882Z" fill="#2C5B0F"/>
<path d="M66.1377 104.105H62.7449V109.275H66.1377C66.6291 109.275 67.0482 109.102 67.3948 108.755C67.7415 108.408 67.9149 107.989 67.9149 107.498V105.882C67.9149 105.391 67.7415 104.972 67.3948 104.625C67.0482 104.278 66.6291 104.105 66.1377 104.105Z" fill="#2C5B0F"/>
<path d="M93.765 104.105H88.595V109.275H93.765V104.105Z" fill="#2C5B0F"/>
<path d="M114.445 104.105H109.275V109.275H114.445V104.105Z" fill="#2C5B0F"/>
<path d="M119.615 104.105H114.445V109.275H119.615V104.105Z" fill="#2C5B0F"/>
<path d="M135.115 105.761H135.125V104.105H129.955V105.761H129.965C129.958 105.815 129.955 105.855 129.955 105.882V107.498C129.955 107.989 130.128 108.408 130.475 108.755C130.822 109.102 131.241 109.275 131.732 109.275H133.348C133.839 109.275 134.258 109.102 134.605 108.755C134.951 108.408 135.125 107.989 135.125 107.498V105.882C135.125 105.855 135.122 105.815 135.115 105.761Z" fill="#2C5B0F"/>
<path d="M52.4051 111.052V109.275H49.0123C48.5209 109.275 48.1018 109.448 47.7552 109.795C47.4085 110.142 47.2351 110.561 47.2351 111.052V112.668C47.2351 113.159 47.4085 113.578 47.7552 113.925C48.1019 114.271 48.5209 114.445 49.0123 114.445H52.4051V111.052Z" fill="#2C5B0F"/>
<path d="M57.5748 109.275H52.4048V114.445H57.5748V109.275Z" fill="#2C5B0F"/>
<path d="M62.7449 109.275H57.575V114.445H60.9678C61.4592 114.445 61.8783 114.271 62.2249 113.925C62.5715 113.578 62.7449 113.159 62.7449 112.668V109.275Z" fill="#2C5B0F"/>
<path d="M73.0848 111.052C73.0848 110.561 72.9114 110.142 72.5647 109.795C72.2181 109.448 71.799 109.275 71.3076 109.275H69.692C69.2006 109.275 68.7815 109.448 68.4348 109.795C68.0882 110.142 67.9148 110.561 67.9148 111.052V112.668C67.9148 112.695 67.9182 112.735 67.9249 112.789H67.9148V114.445H73.0848V112.789H73.0747C73.0815 112.735 73.0848 112.695 73.0848 112.668V111.052Z" fill="#2C5B0F"/>
<path d="M93.765 109.275H88.595V112.668C88.595 113.159 88.7683 113.578 89.115 113.925C89.4617 114.271 89.8807 114.445 90.3722 114.445H93.765V109.275Z" fill="#2C5B0F"/>
<path d="M98.9349 109.275H93.7649V114.445H98.9349V109.275Z" fill="#2C5B0F"/>
<path d="M104.105 109.275H98.9351V114.445H104.105V109.275Z" fill="#2C5B0F"/>
<path d="M109.275 109.275H104.105V114.445H109.275V109.275Z" fill="#2C5B0F"/>
<path d="M114.445 109.275H109.275V114.445H114.445V109.275Z" fill="#2C5B0F"/>
<path d="M119.615 109.275H114.445V114.445H119.615V109.275Z" fill="#2C5B0F"/>
<path d="M129.955 111.052C129.955 110.561 129.782 110.142 129.435 109.795C129.088 109.448 128.669 109.275 128.178 109.275H126.562C126.071 109.275 125.652 109.448 125.305 109.795C124.958 110.142 124.785 110.561 124.785 111.052V112.668C124.785 112.695 124.788 112.735 124.795 112.789H124.785V114.445H129.955V112.789H129.945C129.952 112.735 129.955 112.695 129.955 112.668V111.052Z" fill="#2C5B0F"/>
<path d="M57.5748 114.445H52.4048V119.615H57.5748V114.445Z" fill="#2C5B0F"/>
<path d="M67.9149 116.222V114.445H64.5221C64.0307 114.445 63.6116 114.618 63.2649 114.965C62.9183 115.312 62.7449 115.731 62.7449 116.222V119.615H67.9149V116.222Z" fill="#2C5B0F"/>
<path d="M73.0848 114.445H67.9148V119.615H73.0848V114.445Z" fill="#2C5B0F"/>
<path d="M76.478 114.445H73.0852V119.615H76.478C76.9694 119.615 77.3885 119.441 77.7352 119.095C78.0818 118.748 78.2552 118.329 78.2552 117.838V116.222C78.2552 115.731 78.0818 115.312 77.7352 114.965C77.3885 114.618 76.9694 114.445 76.478 114.445Z" fill="#2C5B0F"/>
<path d="M98.9248 116.101H98.9349V114.445H93.7649V116.101H93.775C93.7683 116.155 93.7649 116.195 93.7649 116.222V117.838C93.7649 118.329 93.9382 118.748 94.2849 119.095C94.6316 119.441 95.0507 119.615 95.5421 119.615H97.1577C97.6491 119.615 98.0682 119.441 98.4148 119.095C98.7615 118.748 98.9349 118.329 98.9349 117.838V116.222C98.9349 116.195 98.9316 116.155 98.9248 116.101Z" fill="#2C5B0F"/>
<path d="M109.275 114.445H104.105V117.838C104.105 118.329 104.278 118.748 104.625 119.095C104.971 119.441 105.391 119.615 105.882 119.615H109.275V114.445Z" fill="#2C5B0F"/>
<path d="M114.445 114.445H109.275V119.615H114.445V114.445Z" fill="#2C5B0F"/>
<path d="M119.615 114.445H114.445V119.615H119.615V114.445Z" fill="#2C5B0F"/>
<path d="M124.785 114.445H119.615V119.615H124.785V114.445Z" fill="#2C5B0F"/>
<path d="M129.955 114.445H124.785V119.615H128.178C128.669 119.615 129.088 119.441 129.435 119.095C129.782 118.748 129.955 118.329 129.955 117.838V114.445Z" fill="#2C5B0F"/>
<path d="M52.4051 121.392V119.615H49.0123C48.5209 119.615 48.1018 119.789 47.7552 120.135C47.4085 120.482 47.2351 120.901 47.2351 121.392V123.008C47.2351 123.499 47.4085 123.919 47.7552 124.265C48.1019 124.612 48.5209 124.785 49.0123 124.785H52.4051V121.392Z" fill="#2C5B0F"/>
<path d="M57.5748 119.615H52.4048V124.785H57.5748V119.615Z" fill="#2C5B0F"/>
<path d="M67.9149 119.615H62.7449V123.008C62.7449 123.499 62.9182 123.919 63.2649 124.265C63.6116 124.612 64.0307 124.785 64.5221 124.785H67.9149V119.615Z" fill="#2C5B0F"/>
<path d="M73.0848 119.615H67.9148V124.785H73.0848V119.615Z" fill="#2C5B0F"/>
<path d="M83.4251 121.392V119.615H80.0323C79.5409 119.615 79.1218 119.789 78.7752 120.135C78.4285 120.482 78.2551 120.901 78.2551 121.392V124.785H83.4251V121.392Z" fill="#2C5B0F"/>
<path d="M88.595 119.615H83.425V124.785H88.595V119.615Z" fill="#2C5B0F"/>
<path d="M93.765 121.392C93.765 120.901 93.5916 120.482 93.2449 120.135C92.8983 119.789 92.4792 119.615 91.9878 119.615H88.595V124.785H93.765V121.392Z" fill="#2C5B0F"/>
<path d="M114.445 119.615H109.275V124.785H114.445V119.615Z" fill="#2C5B0F"/>
<path d="M135.125 123.008C135.125 123.5 134.951 123.919 134.605 124.265C134.258 124.612 133.839 124.785 133.348 124.785H131.732C131.241 124.785 130.822 124.612 130.475 124.265C130.128 123.919 129.955 123.5 129.955 123.008V121.392C129.955 120.901 130.128 120.482 130.475 120.135C130.822 119.789 131.241 119.615 131.732 119.615H133.348C133.839 119.615 134.258 119.789 134.605 120.135C134.951 120.482 135.125 120.901 135.125 121.392V123.008Z" fill="#2C5B0F"/>
<path d="M57.5647 126.441H57.5748V124.785H52.4048V126.441H52.4149C52.4081 126.495 52.4048 126.535 52.4048 126.562V128.178C52.4048 128.669 52.5781 129.088 52.9248 129.435C53.2715 129.782 53.6906 129.955 54.182 129.955H55.7976C56.289 129.955 56.7081 129.782 57.0547 129.435C57.4014 129.088 57.5748 128.669 57.5748 128.178V126.562C57.5748 126.535 57.5715 126.495 57.5647 126.441Z" fill="#2C5B0F"/>
<path d="M73.0848 124.785H67.9148V128.178C67.9148 128.669 68.0881 129.088 68.4348 129.435C68.7815 129.782 69.2006 129.955 69.692 129.955H73.0848V124.785Z" fill="#2C5B0F"/>
<path d="M78.2552 124.785H73.0852V129.955H78.2552V124.785Z" fill="#2C5B0F"/>
<path d="M83.4251 124.785H78.2551V129.955H83.4251V124.785Z" fill="#2C5B0F"/>
<path d="M93.765 124.785H88.595V129.955H93.765V124.785Z" fill="#2C5B0F"/>
<path d="M104.105 128.178C104.105 128.669 103.932 129.088 103.585 129.435C103.238 129.782 102.819 129.955 102.328 129.955H100.712C100.221 129.955 99.8018 129.782 99.4552 129.435C99.1085 129.088 98.9351 128.669 98.9351 128.178V126.562C98.9351 126.071 99.1084 125.652 99.4551 125.305C99.8019 124.959 100.221 124.785 100.712 124.785H102.328C102.819 124.785 103.238 124.959 103.585 125.305C103.932 125.652 104.105 126.071 104.105 126.562V128.178Z" fill="#2C5B0F"/>
<path d="M114.445 124.785H109.275V128.178C109.275 128.669 109.448 129.088 109.795 129.435C110.142 129.782 110.561 129.955 111.052 129.955H114.445V124.785Z" fill="#2C5B0F"/>
<path d="M117.838 124.785H114.445V129.955H117.838C118.329 129.955 118.748 129.782 119.095 129.435C119.441 129.088 119.615 128.669 119.615 128.178V126.562C119.615 126.071 119.441 125.652 119.095 125.305C118.748 124.959 118.329 124.785 117.838 124.785Z" fill="#2C5B0F"/>
<path d="M129.955 126.562C129.955 126.071 129.782 125.652 129.435 125.305C129.088 124.959 128.669 124.785 128.178 124.785H126.562C126.071 124.785 125.652 124.959 125.305 125.305C124.958 125.652 124.785 126.071 124.785 126.562V128.178C124.785 128.205 124.788 128.245 124.795 128.299H124.785V129.955H129.955V128.299H129.945C129.952 128.245 129.955 128.205 129.955 128.178V126.562Z" fill="#2C5B0F"/>
<path d="M52.4051 133.347C52.4051 133.839 52.2317 134.258 51.8851 134.605C51.5384 134.951 51.1194 135.125 50.6279 135.125H49.0123C48.5209 135.125 48.1019 134.951 47.7552 134.605C47.4085 134.258 47.2351 133.839 47.2351 133.347V131.732C47.2351 131.24 47.4085 130.821 47.7552 130.475C48.1019 130.128 48.5209 129.955 49.0123 129.955H50.6279C51.1195 129.955 51.5385 130.128 51.8851 130.475C52.2317 130.821 52.4051 131.24 52.4051 131.732V133.347Z" fill="#2C5B0F"/>
<path d="M67.9149 133.347C67.9149 133.839 67.7414 134.258 67.3948 134.605C67.0482 134.951 66.6292 135.125 66.1377 135.125H64.5221C64.0307 135.125 63.6116 134.951 63.265 134.605C62.9183 134.258 62.7449 133.839 62.7449 133.347V131.732C62.7449 131.24 62.9182 130.821 63.2649 130.475C63.6117 130.128 64.0307 129.955 64.5221 129.955H66.1377C66.6292 129.955 67.0483 130.128 67.3948 130.475C67.7415 130.821 67.9149 131.24 67.9149 131.732V133.347Z" fill="#2C5B0F"/>
<path d="M83.4251 129.955H78.2551V133.347C78.2551 133.839 78.4285 134.258 78.7752 134.605C79.1219 134.951 79.5409 135.125 80.0323 135.125H83.4251V129.955Z" fill="#2C5B0F"/>
<path d="M88.595 129.955H83.425V135.125H88.595V129.955Z" fill="#2C5B0F"/>
<path d="M93.765 129.955H88.595V135.125H91.9878C92.4792 135.125 92.8983 134.951 93.2449 134.605C93.5916 134.258 93.765 133.839 93.765 133.347V129.955Z" fill="#2C5B0F"/>
<path d="M109.275 133.347C109.275 133.839 109.101 134.258 108.755 134.605C108.408 134.951 107.989 135.125 107.498 135.125H105.882C105.391 135.125 104.971 134.951 104.625 134.605C104.278 134.258 104.105 133.839 104.105 133.347V131.732C104.105 131.24 104.278 130.821 104.625 130.475C104.972 130.128 105.391 129.955 105.882 129.955H107.498C107.989 129.955 108.408 130.128 108.755 130.475C109.101 130.821 109.275 131.24 109.275 131.732V133.347Z" fill="#2C5B0F"/>
<path d="M129.955 129.955H124.785V133.347C124.785 133.839 124.958 134.258 125.305 134.605C125.652 134.951 126.071 135.125 126.562 135.125H129.955V129.955Z" fill="#2C5B0F"/>
<path d="M133.348 129.955H129.955V135.125H133.348C133.839 135.125 134.258 134.951 134.605 134.605C134.951 134.258 135.125 133.839 135.125 133.347V131.732C135.125 131.24 134.951 130.821 134.605 130.475C134.258 130.128 133.839 129.955 133.348 129.955Z" fill="#2C5B0F"/>
<path d="M29.7094 5.87793H18.2306C12.6364 5.87793 7.89693 9.57401 6.38166 14.6258C6.22496 15.1484 6.10264 15.6854 6.01759 16.2344C5.92386 16.8402 5.875 17.4605 5.875 18.0921V29.8433C5.875 36.5815 11.4193 42.061 18.2306 42.061L23.97 42.0621L29.7094 42.0607C36.5203 42.0607 42.065 36.5812 42.065 29.8429V18.0921C42.065 11.3571 36.5207 5.87793 29.7094 5.87793ZM36.6365 29.8433C36.6365 33.5868 33.5292 36.6325 29.7079 36.6325L23.97 36.6336L18.2321 36.6322C14.4108 36.6322 11.3035 33.5864 11.3035 29.8433V18.0921C11.3035 16.9228 11.6068 15.8219 12.1406 14.8599C12.6545 13.9345 13.3815 13.1387 14.257 12.5362C15.3825 11.7613 16.753 11.3064 18.2303 11.3064H29.7094C33.5292 11.3064 36.6365 14.3504 36.6365 18.0921V29.8433Z" fill="#2C5B0F"/>
<path d="M122.769 5.87793H111.291C105.696 5.87793 100.957 9.57401 99.4417 14.6258C99.285 15.1484 99.1627 15.6854 99.0776 16.2344C98.9839 16.8402 98.9351 17.4605 98.9351 18.0921V29.8433C98.9351 36.5815 104.479 42.061 111.291 42.061L117.03 42.0621L122.769 42.0607C129.58 42.0607 135.125 36.5812 135.125 29.8429V18.0921C135.125 11.3571 129.581 5.87793 122.769 5.87793ZM129.697 29.8433C129.697 33.5868 126.589 36.6325 122.768 36.6325L117.03 36.6336L111.292 36.6322C107.471 36.6322 104.364 33.5864 104.364 29.8433V18.0921C104.364 16.9228 104.667 15.8219 105.201 14.8599C105.715 13.9345 106.442 13.1387 107.317 12.5362C108.443 11.7613 109.813 11.3064 111.29 11.3064H122.769C126.589 11.3064 129.697 14.3504 129.697 18.0921V29.8433Z" fill="#2C5B0F"/>
<path d="M29.7094 98.9375H18.2306C12.6364 98.9375 7.89693 102.634 6.38166 107.685C6.22496 108.208 6.10264 108.745 6.01759 109.294C5.92386 109.9 5.875 110.52 5.875 111.152V122.903C5.875 129.641 11.4193 135.121 18.2306 135.121L23.97 135.122L29.7094 135.12C36.5203 135.12 42.065 129.641 42.065 122.903V111.152C42.065 104.417 36.5207 98.9375 29.7094 98.9375ZM36.6365 122.903C36.6365 126.646 33.5292 129.692 29.7079 129.692L23.97 129.693L18.2321 129.692C14.4108 129.692 11.3035 126.646 11.3035 122.903V111.152C11.3035 109.982 11.6068 108.881 12.1406 107.919C12.6545 106.994 13.3815 106.198 14.257 105.596C15.3825 104.821 16.753 104.366 18.2303 104.366H29.7094C33.5292 104.366 36.6365 107.41 36.6365 111.152V122.903Z" fill="#2C5B0F"/>
<path d="M20.4567 31.7251C18.1163 31.7251 16.2124 29.8589 16.2124 27.5672V20.3708C16.2124 19.6549 16.3985 18.9811 16.7244 18.3916C17.0391 17.8242 17.4845 17.3366 18.021 16.9687C18.7101 16.4944 19.5502 16.2151 20.4544 16.2151H27.4846C29.8229 16.2151 31.7267 18.0791 31.7267 20.3707V27.567C31.7267 29.8586 29.823 31.7249 27.4846 31.7249H23.9696L20.4567 31.7251Z" fill="#2C5B0F"/>
<path d="M113.517 31.7251C111.177 31.7251 109.273 29.8589 109.273 27.5672V20.3708C109.273 19.6549 109.459 18.9811 109.785 18.3916C110.099 17.8242 110.545 17.3366 111.081 16.9687C111.77 16.4944 112.61 16.2151 113.515 16.2151H120.545C122.883 16.2151 124.787 18.0791 124.787 20.3707V27.567C124.787 29.8586 122.883 31.7249 120.545 31.7249H117.03L113.517 31.7251Z" fill="#2C5B0F"/>
<path d="M20.4567 124.785C18.1163 124.785 16.2124 122.919 16.2124 120.627V113.431C16.2124 112.715 16.3985 112.041 16.7244 111.451C17.0391 110.884 17.4845 110.396 18.021 110.029C18.7101 109.554 19.5502 109.275 20.4544 109.275H27.4846C29.8229 109.275 31.7267 111.139 31.7267 113.43V120.627C31.7267 122.918 29.823 124.785 27.4846 124.785H23.9696L20.4567 124.785Z" fill="#2C5B0F"/>
</svg>
