<svg width="21" height="26" viewBox="0 0 21 26" fill="none" xmlns="http://www.w3.org/2000/svg">
<path d="M6.83358 12.004L9.16691 14.3373L14.4169 9.08733M19.6669 12.5873C19.6669 18.3138 13.4206 22.4788 11.1479 23.8047C10.8896 23.9554 10.7605 24.0307 10.5782 24.0698C10.4368 24.1001 10.2304 24.1001 10.089 24.0698C9.90669 24.0307 9.77755 23.9554 9.51926 23.8047C7.24653 22.4788 1.00024 18.3139 1.00024 12.5873V7.00787C1.00024 6.0751 1.00024 5.60872 1.1528 5.20782C1.28756 4.85366 1.50656 4.53766 1.79085 4.28712C2.11266 4.00351 2.54934 3.83975 3.42272 3.51224L9.67815 1.16645C9.92069 1.0755 10.042 1.03002 10.1667 1.01199C10.2774 0.996002 10.3898 0.996002 10.5004 1.01199C10.6252 1.03002 10.7465 1.0755 10.989 1.16645L17.2444 3.51224C18.1178 3.83975 18.5545 4.00351 18.8763 4.28712C19.1606 4.53766 19.3796 4.85366 19.5144 5.20782C19.6669 5.60872 19.6669 6.0751 19.6669 7.00787V12.5873Z" stroke="#777777" stroke-width="2" stroke-linecap="round" stroke-linejoin="round"/>
</svg>
