<svg width="28" height="28" viewBox="0 0 28 28" fill="none" xmlns="http://www.w3.org/2000/svg">
<path d="M5.24992 25.6667V19.8334M5.24992 8.16671V2.33337M2.33325 5.25004H8.16659M2.33325 22.75H8.16659M15.1666 3.50004L13.1434 8.76038C12.8144 9.61582 12.6499 10.0435 12.394 10.4033C12.1673 10.7222 11.8887 11.0008 11.5699 11.2275C11.2101 11.4833 10.7824 11.6478 9.92692 11.9768L4.66659 14L9.92693 16.0232C10.7824 16.3523 11.2101 16.5168 11.5699 16.7726C11.8887 16.9993 12.1673 17.2779 12.394 17.5968C12.6499 17.9565 12.8144 18.3843 13.1434 19.2397L15.1666 24.5L17.1898 19.2397C17.5188 18.3843 17.6833 17.9565 17.9391 17.5968C18.1659 17.2779 18.4445 16.9993 18.7633 16.7726C19.1231 16.5168 19.5508 16.3523 20.4062 16.0232L25.6666 14L20.4062 11.9768C19.5508 11.6478 19.1231 11.4833 18.7633 11.2275C18.4445 11.0008 18.1659 10.7222 17.9391 10.4033C17.6833 10.0435 17.5188 9.61582 17.1898 8.76038L15.1666 3.50004Z" stroke="#0B0E04" stroke-width="2" stroke-linecap="round" stroke-linejoin="round"/>
</svg>
