<svg width="48" height="48" viewBox="0 0 48 48" fill="none" xmlns="http://www.w3.org/2000/svg">
<path d="M18.3032 29.6716C20.9882 29.3416 31.9532 27.9766 31.9532 27.9766L18.3032 26.2816C17.9732 23.5966 16.6082 12.6316 16.6082 12.6316L14.9132 26.2816C12.2282 26.6116 1.26318 27.9766 1.26318 27.9766L14.9132 29.6716C15.2432 32.3566 16.6082 43.3216 16.6082 43.3216L18.3032 29.6716Z" fill="#9FE870"/>
<path d="M32.4107 13.4632C33.5357 13.3207 38.1332 12.7507 38.1332 12.7507L32.4107 12.0382C32.2682 10.9132 31.6982 6.31567 31.6982 6.31567L30.9857 12.0382C29.8607 12.1807 25.2632 12.7507 25.2632 12.7507L30.9857 13.4632C31.1282 14.5882 31.6982 19.1857 31.6982 19.1857L32.4107 13.4632Z" fill="#9FE870"/>
<path d="M39.3659 21.6818C39.9959 21.6068 42.5684 21.2843 42.5684 21.2843L39.3659 20.8868C39.2909 20.2568 38.9684 17.6843 38.9684 17.6843L38.5709 20.8868C37.9409 20.9618 35.3684 21.2843 35.3684 21.2843L38.5709 21.6818C38.6459 22.3118 38.9684 24.8843 38.9684 24.8843L39.3659 21.6818Z" fill="#9FE870"/>
</svg>
