<svg version="1.1" width="2667" height="800" viewBox="2.143 4.8 807.419 800.352" xmlns="http://www.w3.org/2000/svg">
  <defs></defs>
  <path d="M0 0 C1.13913849 0.00182281 2.27827698 0.00364563 3.45193481 0.00552368 C20.97758874 0.05262782 38.09045033 0.65190956 55.4375 3.3125 C56.61103027 3.48410645 57.78456055 3.65571289 58.99365234 3.83251953 C145.75180219 16.73383112 222.2241465 58.44043692 284.125 119.8125 C285.44371094 121.1116333 285.44371094 121.1116333 286.7890625 122.43701172 C292.77505876 128.41513166 298.16095649 134.70600939 303.4375 141.3125 C304.30110681 142.33986636 305.16950327 143.3632699 306.046875 144.37890625 C326.37394205 168.08145341 343.08906291 195.3700177 356.55810547 223.484375 C357.40075382 225.23611039 358.26437602 226.9777099 359.12890625 228.71875 C377.7451889 267.07433931 388.58675691 309.07245684 393.4375 351.3125 C393.55464355 352.30749512 393.67178711 353.30249023 393.79248047 354.32763672 C403.08635476 436.86773575 383.68700549 518.81870543 344.4375 591.3125 C338.41342267 591.3125 335.10055436 587.88044311 330.4375 584.3125 C329.75171875 583.79558594 329.0659375 583.27867187 328.359375 582.74609375 C312.82915282 570.15146235 302.74048254 550.03978449 300.4375 530.3125 C299.31235901 516.35371965 300.52724577 503.68839748 304.4375 490.3125 C328.71341892 405.25742457 321.1191987 316.85926408 277.91479492 238.90332031 C268.76230399 222.88205709 258.29089982 207.45913471 246.4375 193.3125 C245.75034912 192.47525391 245.75034912 192.47525391 245.04931641 191.62109375 C238.07032168 183.13524365 230.55415047 175.23048768 222.8125 167.4375 C221.95414551 166.56988037 221.09579102 165.70226074 220.21142578 164.80834961 C214.26323806 158.88905859 208.02357417 153.50857957 201.4375 148.3125 C200.70515137 147.73145508 199.97280273 147.15041016 199.21826172 146.55175781 C142.45522919 101.88354467 73.26254697 76.72717228 0.875 77 C-0.13307709 77.00182281 -1.14115417 77.00364563 -2.17977905 77.00552368 C-17.82914124 77.05305531 -33.11057214 77.6316899 -48.5625 80.3125 C-49.57892578 80.48410645 -50.59535156 80.65571289 -51.64257812 80.83251953 C-118.83002268 92.4707162 -178.74360952 124.55511858 -226.9375 172.4375 C-227.85297607 173.34363037 -228.76845215 174.24976074 -229.71166992 175.18334961 C-235.75338516 181.25361271 -241.24721175 187.60144333 -246.5625 194.3125 C-247.16320312 195.05387207 -247.76390625 195.79524414 -248.3828125 196.55908203 C-257.34709855 207.62276265 -265.26684673 219.08837143 -272.5625 231.3125 C-272.95211914 231.95799805 -273.34173828 232.60349609 -273.74316406 233.26855469 C-300.22715207 277.43964658 -317.51506668 330.12657784 -317.765625 381.97265625 C-317.77621445 383.44208176 -317.77621445 383.44208176 -317.78701782 384.94119263 C-318.02212748 415.25254455 -318.02212748 415.25254455 -314.5625 445.3125 C-314.36382324 446.45025879 -314.16514648 447.58801758 -313.96044922 448.76025391 C-301.17508181 520.04226859 -264.92816051 587.93584419 -209.5625 635.3125 C-208.64984375 636.11429688 -207.7371875 636.91609375 -206.796875 637.7421875 C-145.36797814 691.29203153 -62.1040274 718.61256392 19.0546875 713.8125 C46.71091686 711.82397263 73.58335043 706.50042403 100.13232422 698.5847168 C121.37650451 692.34136161 144.47390411 694.70350234 164.0546875 705.16796875 C176.58639588 712.5543051 189.2317426 723.4674542 196.4375 736.3125 C196.4375 737.3025 196.4375 738.2925 196.4375 739.3125 C154.5793365 763.22335404 109.09895729 778.76162634 61.5625 786.5625 C60.65064941 786.71356201 59.73879883 786.86462402 58.79931641 787.02026367 C40.57738394 789.84582658 22.46072029 790.66136289 4.03833008 790.62817383 C0.40349978 790.62502469 -3.2305044 790.64854091 -6.86523438 790.67382812 C-60.86860544 790.819569 -115.52966064 778.54786982 -164.33789062 755.36083984 C-166.49063085 754.3463681 -168.65558008 753.36574525 -170.828125 752.39453125 C-195.67902107 741.19044993 -219.19247315 726.19619109 -240.5625 709.3125 C-241.366875 708.68730469 -242.17125 708.06210937 -243 707.41796875 C-260.62595707 693.54882625 -278.11909283 678.46040073 -292.73828125 661.41015625 C-293.9821954 659.97978816 -295.25184069 658.57149275 -296.54296875 657.18359375 C-303.21439777 650.00178218 -309.09588421 642.2856124 -314.96337891 634.44677734 C-316.44044914 632.47539597 -317.92821326 630.51257984 -319.41796875 628.55078125 C-330.85957781 613.35946998 -340.6796882 597.1132493 -349.5625 580.3125 C-350.03155762 579.43029785 -350.50061523 578.5480957 -350.98388672 577.63916016 C-370.25325026 541.11440875 -382.92030343 501.83672967 -389.8125 461.1875 C-389.9375592 460.4606601 -390.06261841 459.73382019 -390.19146729 458.98495483 C-393.77065805 437.97362533 -394.94622366 417.11013197 -394.875 395.8125 C-394.87317719 394.67530518 -394.87135437 393.53811035 -394.86947632 392.36645508 C-394.82141554 374.50600672 -394.23363284 356.99930835 -391.5625 339.3125 C-391.39089355 338.15572754 -391.21928711 336.99895508 -391.04248047 335.80712891 C-380.18754503 264.90567841 -350.06990822 198.15318745 -304.08300781 143.14160156 C-302.701802 141.48007395 -301.34433184 139.80236193 -299.9921875 138.1171875 C-293.02671787 129.57550291 -285.26682476 121.80435752 -277.5 114 C-276.94518951 113.43992249 -276.39037903 112.87984497 -275.8187561 112.30279541 C-268.72172473 105.15376202 -261.45341216 98.58572233 -253.5625 92.3125 C-252.46059978 91.37780542 -251.36427485 90.43643532 -250.27734375 89.484375 C-235.81722327 76.87498724 -219.96704021 66.216018 -203.5625 56.3125 C-202.75506348 55.82426758 -201.94762695 55.33603516 -201.11572266 54.83300781 C-158.59002202 29.33943426 -111.7580685 12.59497908 -62.875 4.5625 C-61.67786377 4.36374268 -60.48072754 4.16498535 -59.24731445 3.96020508 C-39.53896292 0.87121723 -19.93012979 -0.06653767 0 0 Z " fill="#000" transform="translate(404.5625,9.6875)"></path>
  <path d="M 204.668 187.83 C 223.049 187.83 241.43 187.83 260.369 187.83 C 260.369 217.116 260.369 246.401 260.369 276.574 C 277.556 277.451 277.556 277.451 283.347 272.624 C 284.687 270.714 284.687 270.714 285.8 268.608 C 286.269 267.889 286.738 267.171 287.222 266.43 C 288.205 264.924 289.164 263.402 290.1 261.866 C 292.403 258.168 295.017 254.706 297.601 251.202 C 298.625 249.778 299.648 248.353 300.669 246.927 C 305.498 240.207 310.428 233.562 315.346 226.907 C 318.108 223.167 320.865 219.424 323.622 215.681 C 324.426 214.589 324.426 214.589 325.247 213.476 C 328.156 209.529 331.063 205.581 333.966 201.63 C 334.88 200.388 334.88 200.388 335.812 199.12 C 336.988 197.522 338.163 195.922 339.338 194.323 C 339.863 193.609 340.388 192.895 340.929 192.16 C 341.394 191.527 341.858 190.895 342.337 190.243 C 343.448 188.774 343.448 188.774 344.392 187.83 C 346.535 187.741 348.681 187.719 350.825 187.723 C 351.834 187.723 351.834 187.723 352.863 187.723 C 355.095 187.723 357.327 187.731 359.56 187.738 C 361.104 187.74 362.647 187.741 364.191 187.742 C 368.262 187.746 372.333 187.755 376.404 187.765 C 380.555 187.775 384.707 187.779 388.858 187.784 C 397.008 187.794 405.159 187.81 413.31 187.83 C 412.432 189.167 411.552 190.502 410.67 191.836 C 409.935 192.952 409.935 192.952 409.185 194.09 C 406.776 197.589 404.069 200.812 401.332 204.057 C 400.16 205.462 398.99 206.868 397.821 208.275 C 397.246 208.967 396.672 209.658 396.08 210.37 C 393.695 213.266 391.369 216.206 389.059 219.162 C 388.64 219.697 388.222 220.232 387.791 220.784 C 386.54 222.386 385.292 223.99 384.043 225.593 C 378.072 233.249 372.027 240.834 365.885 248.354 C 362.747 252.208 359.679 256.101 356.665 260.052 C 353.147 264.665 349.537 269.189 345.867 273.683 C 341.859 278.592 337.874 283.517 333.948 288.493 C 333.532 289.017 333.116 289.542 332.687 290.082 C 330.118 293.35 327.774 296.694 325.51 300.176 C 330.714 306.915 335.975 313.572 341.56 320.001 C 345.306 324.316 348.917 328.701 352.417 333.219 C 356.429 338.398 360.613 343.394 364.901 348.347 C 368.26 352.233 371.507 356.192 374.695 360.221 C 380.789 367.905 387.092 375.428 393.328 382.997 C 397.139 387.623 400.942 392.254 404.732 396.896 C 406.12 398.593 407.512 400.287 408.906 401.978 C 420.862 416.496 420.862 416.496 420.862 418.186 C 411.794 418.471 402.727 418.689 393.656 418.822 C 389.442 418.886 385.232 418.972 381.02 419.112 C 376.949 419.246 372.881 419.319 368.808 419.35 C 367.261 419.373 365.714 419.417 364.167 419.483 C 352.388 419.97 352.388 419.97 348.491 416.988 C 345.259 413.67 342.971 409.876 340.616 405.913 C 339.562 404.545 338.489 403.192 337.374 401.875 C 336.904 401.301 336.434 400.727 335.95 400.135 C 335.484 399.569 335.018 399.003 334.538 398.419 C 328.488 391.018 322.58 383.512 316.698 375.977 C 311.671 369.541 306.598 363.149 301.436 356.821 C 297.483 351.973 293.56 347.105 289.694 342.187 C 289.294 341.679 288.893 341.17 288.481 340.646 C 285.342 336.639 282.306 332.572 279.25 328.498 C 269.904 328.031 269.904 328.031 260.369 327.554 C 260.369 357.463 260.369 387.371 260.369 418.186 C 241.987 418.186 223.606 418.186 204.668 418.186 C 204.668 342.168 204.668 266.151 204.668 187.83 Z" fill="#000" style=""></path>
  <path d="M 419.918 187.83 C 438.3 187.83 456.681 187.83 475.619 187.83 C 475.633 192.017 475.647 196.204 475.661 200.518 C 475.708 214.385 475.771 228.252 475.842 242.119 C 475.884 250.523 475.921 258.926 475.946 267.33 C 475.968 274.661 475.999 281.991 476.043 289.321 C 476.065 293.198 476.083 297.074 476.089 300.95 C 476.095 304.61 476.114 308.269 476.142 311.929 C 476.15 313.261 476.154 314.594 476.152 315.926 C 476.14 330.585 477.712 345.945 488.095 357.204 C 497.959 366.011 510.597 368.497 523.468 368.352 C 535.109 367.598 546.516 364.282 554.922 355.877 C 565.007 343.815 565.438 328.845 565.5 313.87 C 565.51 312.493 565.519 311.115 565.529 309.737 C 565.554 306.016 565.574 302.295 565.593 298.574 C 565.614 294.678 565.64 290.782 565.665 286.886 C 565.712 279.517 565.754 272.149 565.795 264.78 C 565.842 256.387 565.894 247.994 565.946 239.601 C 566.053 222.344 566.153 205.087 566.251 187.83 C 584.632 187.83 603.013 187.83 621.951 187.83 C 622.016 206.83 622.068 225.829 622.098 244.829 C 622.113 253.652 622.133 262.476 622.165 271.3 C 622.194 278.999 622.212 286.699 622.218 294.398 C 622.222 298.467 622.23 302.536 622.251 306.605 C 622.405 338.056 621.359 368.878 599.294 393.64 C 598.666 394.357 598.038 395.073 597.391 395.812 C 578.567 415.995 550.509 421.757 524.081 423.08 C 496.958 423.62 467.66 417.627 447.445 398.466 C 446.126 397.183 444.822 395.884 443.52 394.584 C 442.889 393.963 442.257 393.342 441.606 392.703 C 423.829 373.918 419.748 347.077 419.811 322.337 C 419.811 320.867 419.811 319.396 419.811 317.925 C 419.81 313.954 419.816 309.983 419.823 306.013 C 419.828 301.855 419.829 297.697 419.83 293.539 C 419.833 285.675 419.841 277.811 419.85 269.948 C 419.861 260.991 419.866 252.034 419.871 243.077 C 419.881 224.662 419.898 206.246 419.918 187.83 Z" fill="#000" style=""></path>
  <path d="M0 0 C11.90351014 9.56059703 19.3066885 20.76337047 21.4609375 35.9765625 C22.48118184 51.08402681 19.16998822 64.6698689 9.1484375 76.2265625 C-1.34962917 87.31557995 -12.74325352 92.97381337 -28.06640625 93.94140625 C-42.58892377 94.08842836 -54.62198347 89.45546345 -65.5390625 79.9765625 C-76.60263177 68.46141898 -80.97410565 55.96278563 -80.90258789 40.27148438 C-80.60720666 26.69182448 -75.50886081 15.39337601 -66.4765625 5.2890625 C-48.45795354 -11.43962367 -20.29506289 -14.32234168 0 0 Z " fill="#9C1447" transform="translate(686.5390625,615.0234375)"></path>
  <path transform="matrix(1, 0, 0, 1, -26.057829, 60.088905)" style="fill: rgb(156, 20, 71);"></path>
  <path d="M 354.529 611.359 L 278.943 611.359 L 268.542 646.808 L 200.72 646.808 L 281.433 432.062 L 353.796 432.062 L 434.509 646.808 L 365.075 646.808 Z M 340.613 564.923 L 316.882 487.726 L 293.298 564.923 Z M 456.017 432.062 L 620.08 432.062 L 620.08 478.204 L 522.668 478.204 L 522.668 515.704 L 605.871 515.704 L 605.871 559.064 L 522.668 559.064 L 522.668 646.808 L 456.017 646.808 Z" style="fill: rgb(156, 20, 71); text-wrap-mode: nowrap;"></path>
</svg>