<svg width="48" height="48" viewBox="0 0 48 48" fill="none" xmlns="http://www.w3.org/2000/svg">
<g clip-path="url(#clip0_2027_307)">
<circle cx="24" cy="24" r="14" fill="#5FC11F"/>
<foreignObject x="-28" y="-32.0005" width="104" height="112.001"><div xmlns="http://www.w3.org/1999/xhtml" style="backdrop-filter:blur(16px);clip-path:url(#bgblur_1_2027_307_clip_path);height:100%;width:100%"></div></foreignObject><path data-figma-bg-blur-radius="32" d="M23.5264 0.57666C23.8339 0.474286 24.1661 0.474288 24.4736 0.57666L37.0039 4.75439C38.8962 5.38299 40.5429 6.59197 41.709 8.20947C42.875 9.82701 43.5017 11.7712 43.5 13.7651V23.9995C43.5 31.3478 39.0293 37.0916 34.376 41.0757C29.7315 45.0522 24.9859 47.2047 24.6104 47.3706H24.6094C24.4176 47.4558 24.2098 47.5005 24 47.5005C23.7902 47.5005 23.5824 47.4558 23.3906 47.3706H23.3896C23.0141 47.2047 18.2685 45.0522 13.624 41.0757C8.9707 37.0916 4.5 31.3478 4.5 23.9995V13.7651C4.49825 11.7712 5.12501 9.82701 6.29102 8.20947C7.38415 6.69314 8.89931 5.5361 10.6436 4.87939L10.9961 4.75439L23.5264 0.57666ZM32.0107 15.5386C31.3554 15.533 30.7243 15.7854 30.2529 16.2407L30.2461 16.2466L22.2305 24.2847L18.0967 19.9741H18.0957C17.8783 19.7253 17.615 19.5205 17.3184 19.3745C17.0129 19.2242 16.6799 19.1377 16.3398 19.1206C15.9997 19.1036 15.6589 19.1568 15.3398 19.2759C15.0209 19.395 14.7291 19.5783 14.4834 19.814C14.2378 20.0496 14.0434 20.3333 13.9111 20.647C13.7789 20.9606 13.7121 21.2978 13.7148 21.6382C13.7177 21.9788 13.7893 22.3158 13.9268 22.6274C14.0602 22.9299 14.2537 23.2016 14.4932 23.4292V23.4302L19.0986 28.2231V28.2241C19.4885 28.6452 19.9603 28.9825 20.4844 29.2163C21.0085 29.4501 21.5746 29.5747 22.1484 29.5835V29.5845H22.2217V29.5835C22.7835 29.5852 23.3403 29.4762 23.8594 29.2612C24.3789 29.046 24.8498 28.7285 25.2461 28.3296L33.79 19.7876L34.1973 19.3804L34.1279 19.3276C34.3646 18.9349 34.4933 18.4828 34.4893 18.0171C34.4836 17.3616 34.2204 16.7345 33.7568 16.271C33.2933 15.8075 32.6662 15.5443 32.0107 15.5386Z" fill="white" fill-opacity="0.64" stroke="url(#paint0_linear_2027_307)"/>
</g>
<defs>
<clipPath id="bgblur_1_2027_307_clip_path" transform="translate(28 32.0005)"><path d="M23.5264 0.57666C23.8339 0.474286 24.1661 0.474288 24.4736 0.57666L37.0039 4.75439C38.8962 5.38299 40.5429 6.59197 41.709 8.20947C42.875 9.82701 43.5017 11.7712 43.5 13.7651V23.9995C43.5 31.3478 39.0293 37.0916 34.376 41.0757C29.7315 45.0522 24.9859 47.2047 24.6104 47.3706H24.6094C24.4176 47.4558 24.2098 47.5005 24 47.5005C23.7902 47.5005 23.5824 47.4558 23.3906 47.3706H23.3896C23.0141 47.2047 18.2685 45.0522 13.624 41.0757C8.9707 37.0916 4.5 31.3478 4.5 23.9995V13.7651C4.49825 11.7712 5.12501 9.82701 6.29102 8.20947C7.38415 6.69314 8.89931 5.5361 10.6436 4.87939L10.9961 4.75439L23.5264 0.57666ZM32.0107 15.5386C31.3554 15.533 30.7243 15.7854 30.2529 16.2407L30.2461 16.2466L22.2305 24.2847L18.0967 19.9741H18.0957C17.8783 19.7253 17.615 19.5205 17.3184 19.3745C17.0129 19.2242 16.6799 19.1377 16.3398 19.1206C15.9997 19.1036 15.6589 19.1568 15.3398 19.2759C15.0209 19.395 14.7291 19.5783 14.4834 19.814C14.2378 20.0496 14.0434 20.3333 13.9111 20.647C13.7789 20.9606 13.7121 21.2978 13.7148 21.6382C13.7177 21.9788 13.7893 22.3158 13.9268 22.6274C14.0602 22.9299 14.2537 23.2016 14.4932 23.4292V23.4302L19.0986 28.2231V28.2241C19.4885 28.6452 19.9603 28.9825 20.4844 29.2163C21.0085 29.4501 21.5746 29.5747 22.1484 29.5835V29.5845H22.2217V29.5835C22.7835 29.5852 23.3403 29.4762 23.8594 29.2612C24.3789 29.046 24.8498 28.7285 25.2461 28.3296L33.79 19.7876L34.1973 19.3804L34.1279 19.3276C34.3646 18.9349 34.4933 18.4828 34.4893 18.0171C34.4836 17.3616 34.2204 16.7345 33.7568 16.271C33.2933 15.8075 32.6662 15.5443 32.0107 15.5386Z"/>
</clipPath><linearGradient id="paint0_linear_2027_307" x1="24" y1="-0.000488281" x2="24" y2="48.0003" gradientUnits="userSpaceOnUse">
<stop stop-color="white"/>
<stop offset="1" stop-color="white" stop-opacity="0"/>
</linearGradient>
<clipPath id="clip0_2027_307">
<rect width="48" height="48" fill="white"/>
</clipPath>
</defs>
</svg>
