<svg width="48" height="48" viewBox="0 0 48 48" fill="none" xmlns="http://www.w3.org/2000/svg">
<ellipse cx="24" cy="22" rx="19" ry="9" fill="#5FC11F"/>
<foreignObject x="-29" y="-25" width="106" height="99"><div xmlns="http://www.w3.org/1999/xhtml" style="backdrop-filter:blur(16px);clip-path:url(#bgblur_0_2027_402_clip_path);height:100%;width:100%"></div></foreignObject><path data-figma-bg-blur-radius="32" d="M10 7.5H37.999C41.575 7.50027 44.4997 10.4613 44.5 14.1191V28.3584C44.5 32.0168 41.5762 34.9785 38 34.9785H32.8271L32.6875 35.0957L25.9541 40.7559L25.9404 40.7676C25.4053 41.2516 24.7161 41.5 24.0146 41.5C23.3016 41.4999 22.5842 41.2441 22.0107 40.7266L22 40.7178L15.4404 35.0986L15.2998 34.9785H10C6.42378 34.9785 3.5 32.0168 3.5 28.3584V14.1191L3.50879 13.7783C3.68387 10.2788 6.53568 7.5 10 7.5ZM11.748 15.7168C11.1697 15.7168 10.6569 16.0798 10.458 16.623L10.4551 16.6299L9.64355 18.9473H7.37305C6.79282 18.9473 6.27832 19.3156 6.08203 19.8604C5.88629 20.4023 6.04259 21.015 6.48047 21.3936L6.48926 21.4004L8.31152 22.9082L7.58887 25.2715C7.4151 25.8293 7.60627 26.4419 8.07324 26.7969C8.3183 26.9841 8.60872 27.0771 8.90039 27.0771C9.16805 27.0771 9.43645 26.9988 9.66797 26.8418L9.66895 26.8408L11.7607 25.417L13.8896 26.8281L13.8916 26.8291C14.3823 27.1516 15.0203 27.126 15.4844 26.7656C15.922 26.4259 16.1063 25.8622 15.9785 25.3359L15.9492 25.2314L15.1973 22.9023L17.0068 21.4033L17.0127 21.3994C17.4562 21.0211 17.6102 20.4074 17.416 19.8643C17.2202 19.3164 16.7052 18.9474 16.123 18.9473H13.8525L13.041 16.6299L13.0381 16.6221L12.9971 16.5234C12.7752 16.0384 12.2915 15.7169 11.748 15.7168ZM23.9971 15.7168C23.4188 15.7169 22.9059 16.0799 22.707 16.623L22.7051 16.6299L21.8926 18.9473H19.6221C19.0417 18.9475 18.527 19.3162 18.3311 19.8613C18.1356 20.4032 18.2927 21.0151 18.7305 21.3936L18.7383 21.4004L20.5615 22.9082L19.8379 25.2715C19.6644 25.8286 19.8557 26.4397 20.3213 26.7949V26.7959C20.5667 26.9838 20.8581 27.0771 21.1504 27.0771C21.4179 27.0771 21.6856 26.9986 21.917 26.8418L21.918 26.8408L24.0098 25.417L26.1396 26.8281L26.1416 26.8291C26.6322 27.1514 27.2693 27.1257 27.7334 26.7656C28.1999 26.4035 28.3787 25.787 28.1982 25.2324H28.1992L27.4463 22.9033L29.2568 21.4033L29.2617 21.3994C29.7053 21.0211 29.8592 20.4075 29.665 19.8643C29.4691 19.3163 28.9544 18.9473 28.3721 18.9473H26.1016L25.29 16.6299L25.2871 16.6221C25.0885 16.0825 24.5766 15.7168 23.9971 15.7168ZM36.2471 15.7168C35.6687 15.7168 35.156 16.0798 34.957 16.623L34.9541 16.6299L34.1426 18.9473H31.8721C31.2918 18.9473 30.7774 19.3156 30.5811 19.8604C30.3853 20.4023 30.5416 21.015 30.9795 21.3936L30.9883 21.4004L32.8105 22.9082L32.0879 25.2715C31.9144 25.8285 32.1049 26.4397 32.5703 26.7949V26.7959C32.8156 26.9837 33.1072 27.0771 33.3994 27.0771C33.6671 27.0771 33.9355 26.9988 34.167 26.8418L34.168 26.8408L36.2598 25.417L38.3887 26.8281L38.3906 26.8291C38.8814 27.1516 39.5193 27.126 39.9834 26.7656C40.421 26.4259 40.6053 25.8622 40.4775 25.3359L40.4482 25.2314L39.6963 22.9023L41.5059 21.4033L42.5732 20.5186H41.9854C42.0134 20.3022 41.9914 20.0781 41.915 19.8643C41.7192 19.3164 41.2042 18.9474 40.6221 18.9473H38.3516L37.5391 16.6299L37.5371 16.6221L37.4961 16.5234C37.2742 16.0384 36.7905 15.7169 36.2471 15.7168Z" fill="white" fill-opacity="0.64" stroke="url(#paint0_linear_2027_402)"/>
<defs>
<clipPath id="bgblur_0_2027_402_clip_path" transform="translate(29 25)"><path d="M10 7.5H37.999C41.575 7.50027 44.4997 10.4613 44.5 14.1191V28.3584C44.5 32.0168 41.5762 34.9785 38 34.9785H32.8271L32.6875 35.0957L25.9541 40.7559L25.9404 40.7676C25.4053 41.2516 24.7161 41.5 24.0146 41.5C23.3016 41.4999 22.5842 41.2441 22.0107 40.7266L22 40.7178L15.4404 35.0986L15.2998 34.9785H10C6.42378 34.9785 3.5 32.0168 3.5 28.3584V14.1191L3.50879 13.7783C3.68387 10.2788 6.53568 7.5 10 7.5ZM11.748 15.7168C11.1697 15.7168 10.6569 16.0798 10.458 16.623L10.4551 16.6299L9.64355 18.9473H7.37305C6.79282 18.9473 6.27832 19.3156 6.08203 19.8604C5.88629 20.4023 6.04259 21.015 6.48047 21.3936L6.48926 21.4004L8.31152 22.9082L7.58887 25.2715C7.4151 25.8293 7.60627 26.4419 8.07324 26.7969C8.3183 26.9841 8.60872 27.0771 8.90039 27.0771C9.16805 27.0771 9.43645 26.9988 9.66797 26.8418L9.66895 26.8408L11.7607 25.417L13.8896 26.8281L13.8916 26.8291C14.3823 27.1516 15.0203 27.126 15.4844 26.7656C15.922 26.4259 16.1063 25.8622 15.9785 25.3359L15.9492 25.2314L15.1973 22.9023L17.0068 21.4033L17.0127 21.3994C17.4562 21.0211 17.6102 20.4074 17.416 19.8643C17.2202 19.3164 16.7052 18.9474 16.123 18.9473H13.8525L13.041 16.6299L13.0381 16.6221L12.9971 16.5234C12.7752 16.0384 12.2915 15.7169 11.748 15.7168ZM23.9971 15.7168C23.4188 15.7169 22.9059 16.0799 22.707 16.623L22.7051 16.6299L21.8926 18.9473H19.6221C19.0417 18.9475 18.527 19.3162 18.3311 19.8613C18.1356 20.4032 18.2927 21.0151 18.7305 21.3936L18.7383 21.4004L20.5615 22.9082L19.8379 25.2715C19.6644 25.8286 19.8557 26.4397 20.3213 26.7949V26.7959C20.5667 26.9838 20.8581 27.0771 21.1504 27.0771C21.4179 27.0771 21.6856 26.9986 21.917 26.8418L21.918 26.8408L24.0098 25.417L26.1396 26.8281L26.1416 26.8291C26.6322 27.1514 27.2693 27.1257 27.7334 26.7656C28.1999 26.4035 28.3787 25.787 28.1982 25.2324H28.1992L27.4463 22.9033L29.2568 21.4033L29.2617 21.3994C29.7053 21.0211 29.8592 20.4075 29.665 19.8643C29.4691 19.3163 28.9544 18.9473 28.3721 18.9473H26.1016L25.29 16.6299L25.2871 16.6221C25.0885 16.0825 24.5766 15.7168 23.9971 15.7168ZM36.2471 15.7168C35.6687 15.7168 35.156 16.0798 34.957 16.623L34.9541 16.6299L34.1426 18.9473H31.8721C31.2918 18.9473 30.7774 19.3156 30.5811 19.8604C30.3853 20.4023 30.5416 21.015 30.9795 21.3936L30.9883 21.4004L32.8105 22.9082L32.0879 25.2715C31.9144 25.8285 32.1049 26.4397 32.5703 26.7949V26.7959C32.8156 26.9837 33.1072 27.0771 33.3994 27.0771C33.6671 27.0771 33.9355 26.9988 34.167 26.8418L34.168 26.8408L36.2598 25.417L38.3887 26.8281L38.3906 26.8291C38.8814 27.1516 39.5193 27.126 39.9834 26.7656C40.421 26.4259 40.6053 25.8622 40.4775 25.3359L40.4482 25.2314L39.6963 22.9023L41.5059 21.4033L42.5732 20.5186H41.9854C42.0134 20.3022 41.9914 20.0781 41.915 19.8643C41.7192 19.3164 41.2042 18.9474 40.6221 18.9473H38.3516L37.5391 16.6299L37.5371 16.6221L37.4961 16.5234C37.2742 16.0384 36.7905 15.7169 36.2471 15.7168Z"/>
</clipPath><linearGradient id="paint0_linear_2027_402" x1="24" y1="7" x2="24" y2="42" gradientUnits="userSpaceOnUse">
<stop stop-color="white"/>
<stop offset="1" stop-color="white" stop-opacity="0"/>
</linearGradient>
</defs>
</svg>
