<svg width="48" height="48" viewBox="0 0 48 48" fill="none" xmlns="http://www.w3.org/2000/svg">
<ellipse cx="17.9002" cy="30.5632" rx="5.10462" ry="18.3434" transform="rotate(44.2644 17.9002 30.5632)" fill="#5FC11F"/>
<foreignObject x="-30" y="-30" width="108" height="108"><div xmlns="http://www.w3.org/1999/xhtml" style="backdrop-filter:blur(16px);clip-path:url(#bgblur_0_2027_376_clip_path);height:100%;width:100%"></div></foreignObject><path data-figma-bg-blur-radius="32" d="M35.0186 20.2422L11.127 44.1289C10.1545 45.0309 8.87137 45.5224 7.54492 45.499C6.21426 45.4756 4.94487 44.9363 4.00391 43.9951C3.06305 43.054 2.52419 41.7847 2.50098 40.4541C2.47786 39.1234 2.97125 37.8346 3.87891 36.8613L27.7568 12.9805L35.0186 20.2422ZM20.0537 24.4863L5.76465 38.7773C5.30591 39.2372 5.04785 39.8612 5.04785 40.5107C5.04797 41.1602 5.30602 41.7834 5.76465 42.2432L5.77344 42.252C6.23821 42.6949 6.85599 42.9414 7.49805 42.9414C8.1401 42.9414 8.75792 42.695 9.22266 42.252L9.23047 42.2432L23.5283 27.9619L23.8828 27.6084L23.5293 27.2539L20.7607 24.4863L20.4072 24.1328L20.0537 24.4863ZM40.6475 29.1279L40.7217 29.2773L40.8711 29.3516L44.8828 31.3584L40.8701 33.3721L40.7217 33.4463L40.6475 33.5957L38.6426 37.5986L36.6387 33.5957L36.5645 33.4463L36.416 33.3721L32.4023 31.3584L36.415 29.3516L36.5645 29.2773L36.6387 29.1279L38.6426 25.1191L40.6475 29.1279ZM22.6562 21.8779L22.3037 22.2314L22.6553 22.585L25.4141 25.3525L25.7676 25.708L26.1221 25.3535L30.8779 20.5967L31.2314 20.2441L30.8789 19.8906L28.1201 17.1221L27.7666 16.7676L22.6562 21.8779ZM18.5771 7.12891L18.6514 7.27832L18.8008 7.35254L22.8105 9.35645L18.8008 11.3613L18.6514 11.4365L16.5723 15.5947L14.5684 11.585L14.4932 11.4365L14.3447 11.3613L10.334 9.35645L14.3447 7.35254L14.4932 7.27832L14.5684 7.12891L16.5723 3.11816L18.5771 7.12891ZM41.2617 6.51465L41.3369 6.66406L41.4854 6.73828L44.8818 8.4375L41.4854 10.1367L41.3369 10.2109L41.2617 10.3604L39.5625 13.7568L37.8633 10.3604L37.7891 10.2109L37.6396 10.1367L34.2432 8.4375L37.6396 6.73828L37.7891 6.66406L37.8633 6.51465L39.5625 3.11719L41.2617 6.51465Z" fill="white" fill-opacity="0.64" stroke="url(#paint0_linear_2027_376)"/>
<defs>
<clipPath id="bgblur_0_2027_376_clip_path" transform="translate(30 30)"><path d="M35.0186 20.2422L11.127 44.1289C10.1545 45.0309 8.87137 45.5224 7.54492 45.499C6.21426 45.4756 4.94487 44.9363 4.00391 43.9951C3.06305 43.054 2.52419 41.7847 2.50098 40.4541C2.47786 39.1234 2.97125 37.8346 3.87891 36.8613L27.7568 12.9805L35.0186 20.2422ZM20.0537 24.4863L5.76465 38.7773C5.30591 39.2372 5.04785 39.8612 5.04785 40.5107C5.04797 41.1602 5.30602 41.7834 5.76465 42.2432L5.77344 42.252C6.23821 42.6949 6.85599 42.9414 7.49805 42.9414C8.1401 42.9414 8.75792 42.695 9.22266 42.252L9.23047 42.2432L23.5283 27.9619L23.8828 27.6084L23.5293 27.2539L20.7607 24.4863L20.4072 24.1328L20.0537 24.4863ZM40.6475 29.1279L40.7217 29.2773L40.8711 29.3516L44.8828 31.3584L40.8701 33.3721L40.7217 33.4463L40.6475 33.5957L38.6426 37.5986L36.6387 33.5957L36.5645 33.4463L36.416 33.3721L32.4023 31.3584L36.415 29.3516L36.5645 29.2773L36.6387 29.1279L38.6426 25.1191L40.6475 29.1279ZM22.6562 21.8779L22.3037 22.2314L22.6553 22.585L25.4141 25.3525L25.7676 25.708L26.1221 25.3535L30.8779 20.5967L31.2314 20.2441L30.8789 19.8906L28.1201 17.1221L27.7666 16.7676L22.6562 21.8779ZM18.5771 7.12891L18.6514 7.27832L18.8008 7.35254L22.8105 9.35645L18.8008 11.3613L18.6514 11.4365L16.5723 15.5947L14.5684 11.585L14.4932 11.4365L14.3447 11.3613L10.334 9.35645L14.3447 7.35254L14.4932 7.27832L14.5684 7.12891L16.5723 3.11816L18.5771 7.12891ZM41.2617 6.51465L41.3369 6.66406L41.4854 6.73828L44.8818 8.4375L41.4854 10.1367L41.3369 10.2109L41.2617 10.3604L39.5625 13.7568L37.8633 10.3604L37.7891 10.2109L37.6396 10.1367L34.2432 8.4375L37.6396 6.73828L37.7891 6.66406L37.8633 6.51465L39.5625 3.11719L41.2617 6.51465Z"/>
</clipPath><linearGradient id="paint0_linear_2027_376" x1="24" y1="2" x2="24" y2="46" gradientUnits="userSpaceOnUse">
<stop stop-color="white"/>
<stop offset="1" stop-color="white" stop-opacity="0"/>
</linearGradient>
</defs>
</svg>
