<svg width="48" height="48" viewBox="0 0 48 48" fill="none" xmlns="http://www.w3.org/2000/svg">
<g clip-path="url(#clip0_2027_486)">
<circle cx="24" cy="30" r="14" fill="#5FC11F"/>
<foreignObject x="-24" y="-31.928" width="96" height="111.928"><div xmlns="http://www.w3.org/1999/xhtml" style="backdrop-filter:blur(16px);clip-path:url(#bgblur_1_2027_486_clip_path);height:100%;width:100%"></div></foreignObject><path data-figma-bg-blur-radius="32" d="M31.4854 0.61792C36.0201 1.33418 39.4999 5.26783 39.5 9.99976V37.9998C39.5 43.2376 35.2379 47.4998 30 47.4998H18C12.7621 47.4998 8.5 43.2376 8.5 37.9998V9.99976L8.51074 9.54761C8.72418 5.01941 12.1244 1.31028 16.5127 0.61792L17.7607 3.11694V3.11792C18.1853 3.9646 19.0504 4.49976 19.998 4.49976H27.998C28.9448 4.49974 29.8114 3.96509 30.2344 3.11694L30.2354 3.11792L31.4854 0.61792ZM22 37.4998C20.6199 37.4998 19.5001 38.6197 19.5 39.9998C19.5 41.3799 20.6199 42.4998 22 42.4998H26C27.3801 42.4998 28.5 41.3799 28.5 39.9998C28.4999 38.6197 27.3801 37.4998 26 37.4998H22Z" fill="white" fill-opacity="0.64" stroke="url(#paint0_linear_2027_486)"/>
</g>
<defs>
<clipPath id="bgblur_1_2027_486_clip_path" transform="translate(24 31.928)"><path d="M31.4854 0.61792C36.0201 1.33418 39.4999 5.26783 39.5 9.99976V37.9998C39.5 43.2376 35.2379 47.4998 30 47.4998H18C12.7621 47.4998 8.5 43.2376 8.5 37.9998V9.99976L8.51074 9.54761C8.72418 5.01941 12.1244 1.31028 16.5127 0.61792L17.7607 3.11694V3.11792C18.1853 3.9646 19.0504 4.49976 19.998 4.49976H27.998C28.9448 4.49974 29.8114 3.96509 30.2344 3.11694L30.2354 3.11792L31.4854 0.61792ZM22 37.4998C20.6199 37.4998 19.5001 38.6197 19.5 39.9998C19.5 41.3799 20.6199 42.4998 22 42.4998H26C27.3801 42.4998 28.5 41.3799 28.5 39.9998C28.4999 38.6197 27.3801 37.4998 26 37.4998H22Z"/>
</clipPath><linearGradient id="paint0_linear_2027_486" x1="24" y1="0.0720215" x2="24" y2="48" gradientUnits="userSpaceOnUse">
<stop stop-color="white"/>
<stop offset="1" stop-color="white" stop-opacity="0"/>
</linearGradient>
<clipPath id="clip0_2027_486">
<rect width="48" height="48" fill="white"/>
</clipPath>
</defs>
</svg>
