<svg width="25" height="19" viewBox="0 0 25 19" fill="none" xmlns="http://www.w3.org/2000/svg">
<path d="M1.30785 9.99871C1.14897 9.74713 1.06952 9.62134 1.02505 9.42732C0.991649 9.28158 0.991649 9.05175 1.02505 8.90602C1.06952 8.712 1.14897 8.58621 1.30785 8.33463C2.62083 6.25565 6.52901 1 12.4848 1C18.4407 1 22.3489 6.25565 23.6618 8.33463C23.8207 8.58621 23.9002 8.712 23.9446 8.90602C23.978 9.05175 23.978 9.28158 23.9446 9.42732C23.9002 9.62134 23.8207 9.74713 23.6618 9.99871C22.3489 12.0777 18.4407 17.3333 12.4848 17.3333C6.52901 17.3333 2.62083 12.0777 1.30785 9.99871Z" stroke="#5754FF" stroke-width="2" stroke-linecap="round" stroke-linejoin="round"/>
<path d="M12.4848 12.6667C14.4178 12.6667 15.9848 11.0997 15.9848 9.16667C15.9848 7.23367 14.4178 5.66667 12.4848 5.66667C10.5518 5.66667 8.98485 7.23367 8.98485 9.16667C8.98485 11.0997 10.5518 12.6667 12.4848 12.6667Z" stroke="#5754FF" stroke-width="2" stroke-linecap="round" stroke-linejoin="round"/>
</svg>
