<svg width="23" height="23" viewBox="0 0 23 23" fill="none" xmlns="http://www.w3.org/2000/svg">
<path d="M6.83333 1H6.6C4.63982 1 3.65972 1 2.91103 1.38148C2.25247 1.71703 1.71703 2.25247 1.38148 2.91103C1 3.65972 1 4.63982 1 6.6V6.83333M6.83333 22H6.6C4.63982 22 3.65972 22 2.91103 21.6185C2.25247 21.283 1.71703 20.7475 1.38148 20.089C1 19.3403 1 18.3602 1 16.4V16.1667M22 6.83333V6.6C22 4.63982 22 3.65972 21.6185 2.91103C21.283 2.25247 20.7475 1.71703 20.089 1.38148C19.3403 1 18.3602 1 16.4 1H16.1667M22 16.1667V16.4C22 18.3602 22 19.3403 21.6185 20.089C21.283 20.7475 20.7475 21.283 20.089 21.6185C19.3403 22 18.3602 22 16.4 22H16.1667M6.25 6.83333V8.58333M16.75 6.83333V8.58333M10.3333 12.2001C11.2667 12.2001 12.0833 11.3834 12.0833 10.4501V6.83333M15.2336 15.2333C13.1336 17.3333 9.75023 17.3333 7.65023 15.2333" stroke="#5FC11F" stroke-width="2" stroke-linecap="round" stroke-linejoin="round"/>
</svg>
