<svg width="26" height="23" viewBox="0 0 26 23" fill="none" xmlns="http://www.w3.org/2000/svg">
<path d="M8 22H17.3333M12.6667 17.3333V22M6.6 17.3333H18.7333C20.6935 17.3333 21.6736 17.3333 22.4223 16.9519C23.0809 16.6163 23.6163 16.0809 23.9519 15.4223C24.3333 14.6736 24.3333 13.6935 24.3333 11.7333V6.6C24.3333 4.63982 24.3333 3.65972 23.9519 2.91103C23.6163 2.25247 23.0809 1.71703 22.4223 1.38148C21.6736 1 20.6935 1 18.7333 1L6.6 1C4.63982 1 3.65972 1 2.91103 1.38148C2.25247 1.71703 1.71703 2.25247 1.38148 2.91103C1 3.65972 1 4.63982 1 6.6V11.7333C1 13.6935 1 14.6736 1.38148 15.4223C1.71703 16.0809 2.25247 16.6163 2.91103 16.9519C3.65972 17.3333 4.63982 17.3333 6.6 17.3333Z" stroke="#FB37E1" stroke-width="2" stroke-linecap="round" stroke-linejoin="round"/>
</svg>
