<svg width="23" height="23" viewBox="0 0 23 23" fill="none" xmlns="http://www.w3.org/2000/svg">
<path d="M17.3333 10.3333V6.83333C17.3333 3.61167 14.7217 1 11.5 1C8.27834 1 5.66667 3.61167 5.66667 6.83333V10.3333M6.6 22H16.4C18.3602 22 19.3403 22 20.089 21.6185C20.7475 21.283 21.283 20.7475 21.6185 20.089C22 19.3403 22 18.3602 22 16.4V15.9333C22 13.9731 22 12.9931 21.6185 12.2444C21.283 11.5858 20.7475 11.0504 20.089 10.7148C19.3403 10.3333 18.3602 10.3333 16.4 10.3333H6.6C4.63982 10.3333 3.65972 10.3333 2.91103 10.7148C2.25247 11.0504 1.71703 11.5858 1.38148 12.2444C1 12.9931 1 13.9731 1 15.9333V16.4C1 18.3602 1 19.3403 1.38148 20.089C1.71703 20.7475 2.25247 21.283 2.91103 21.6185C3.65972 22 4.63982 22 6.6 22Z" stroke="#FB8B03" stroke-width="2" stroke-linecap="round" stroke-linejoin="round"/>
</svg>
