<svg width="67" height="17" viewBox="0 0 67 17" fill="none" xmlns="http://www.w3.org/2000/svg">
<path d="M56.2034 16.1985V14.0311L63.5269 6.04593H56.4315V4.06104H66.3103V6.22845L58.9183 14.2136H66.4929V16.1985H56.2034Z" fill="white"/>
<path d="M47.4611 16.4723C46.2443 16.4723 45.2709 16.0692 44.5408 15.2631C43.8259 14.4418 43.4685 13.3087 43.4685 11.8637V4.06104H45.8869V11.2477C45.8869 12.3428 46.077 13.1489 46.4573 13.6661C46.8375 14.1832 47.4155 14.4418 48.1912 14.4418C49.0734 14.4418 49.7578 14.1604 50.2445 13.5976C50.7464 13.0197 50.9974 12.2135 50.9974 11.1793V4.06104H53.4158V16.1985H51.1571L51.1115 13.0273L51.4537 13.1642C51.2408 14.2289 50.7921 15.0502 50.1076 15.6282C49.4232 16.1909 48.541 16.4723 47.4611 16.4723Z" fill="white"/>
<path d="M37.8589 16.1984V13.3237H40.802V16.1984H37.8589Z" fill="white"/>
<path d="M30.9675 16.4724C29.8268 16.4724 28.861 16.2975 28.07 15.9477C27.2943 15.5978 26.6935 15.1187 26.2677 14.5103C25.8418 13.8867 25.5984 13.1719 25.5376 12.3657L28.0244 12.2517C28.1461 12.9209 28.4351 13.4532 28.8914 13.8487C29.3477 14.2442 30.0397 14.4419 30.9675 14.4419C31.728 14.4419 32.3288 14.3202 32.7699 14.0768C33.211 13.8335 33.4315 13.4456 33.4315 12.9133C33.4315 12.6243 33.3555 12.3809 33.2034 12.1832C33.0665 11.9703 32.7927 11.7954 32.3821 11.6585C31.9714 11.5064 31.363 11.3619 30.5569 11.225C29.3553 10.9968 28.4123 10.7307 27.7278 10.4265C27.0434 10.1223 26.5567 9.73442 26.2677 9.26292C25.9787 8.79141 25.8342 8.22104 25.8342 7.5518C25.8342 6.44148 26.2449 5.53649 27.0662 4.83684C27.9027 4.13718 29.1043 3.78735 30.6709 3.78735C31.7204 3.78735 32.6026 3.96987 33.3175 4.33491C34.0323 4.68474 34.5875 5.16385 34.9829 5.77225C35.3936 6.36543 35.6522 7.03467 35.7586 7.77995L33.2718 7.91684C33.1958 7.49096 33.0437 7.12593 32.8155 6.82173C32.6026 6.50232 32.3136 6.25896 31.9486 6.09165C31.5835 5.90913 31.15 5.81787 30.6481 5.81787C29.8724 5.81787 29.2944 5.96997 28.9142 6.27417C28.5339 6.57837 28.3438 6.97383 28.3438 7.46054C28.3438 7.82558 28.4275 8.12218 28.5948 8.35032C28.7773 8.57847 29.0663 8.7686 29.4617 8.92069C29.8572 9.05758 30.3819 9.17926 31.036 9.28573C32.2984 9.49867 33.287 9.76484 34.0019 10.0843C34.7168 10.3884 35.2187 10.7687 35.5077 11.225C35.7967 11.6813 35.9412 12.2365 35.9412 12.8905C35.9412 13.651 35.7282 14.2974 35.3024 14.8297C34.8765 15.3621 34.2909 15.7728 33.5456 16.0617C32.8003 16.3355 31.941 16.4724 30.9675 16.4724Z" fill="white"/>
<path d="M6.37207 16.1986V4.06113H8.58511L8.65356 7.07269L8.37978 6.98143C8.51667 6.3122 8.75242 5.74183 9.08704 5.27032C9.43687 4.79881 9.86274 4.43377 10.3647 4.17521C10.8666 3.91664 11.4142 3.78735 12.0073 3.78735C13.0416 3.78735 13.8858 4.08395 14.5398 4.67713C15.1938 5.25511 15.6045 6.05363 15.7718 7.07269H15.3839C15.5208 6.35783 15.749 5.76464 16.0684 5.29313C16.403 4.80642 16.8289 4.43377 17.346 4.17521C17.8631 3.91664 18.4487 3.78735 19.1028 3.78735C19.9545 3.78735 20.677 3.96987 21.2702 4.33491C21.8786 4.68474 22.3349 5.20187 22.6391 5.88632C22.9585 6.57077 23.1182 7.40731 23.1182 8.39595V16.1986H20.6998V8.98914C20.6998 7.93966 20.5097 7.14874 20.1294 6.61639C19.7492 6.08405 19.1712 5.81787 18.3955 5.81787C17.8936 5.81787 17.4525 5.94716 17.0722 6.20573C16.692 6.4643 16.3954 6.83694 16.1825 7.32365C15.9847 7.81037 15.8859 8.39595 15.8859 9.0804V16.1986H13.5816V9.0804C13.5816 8.04612 13.4066 7.2476 13.0568 6.68484C12.7222 6.10686 12.1442 5.81787 11.3229 5.81787C10.8058 5.81787 10.3571 5.94716 9.97682 6.20573C9.61178 6.4643 9.32279 6.84454 9.10985 7.34647C8.89691 7.83319 8.79044 8.41116 8.79044 9.0804V16.1986H6.37207Z" fill="white"/>
<path d="M2.64652 16.1985C1.85561 16.1985 1.21679 15.9932 0.730075 15.5825C0.243358 15.1719 0 14.5178 0 13.6205V0H2.41837V13.3923C2.41837 13.6661 2.48682 13.8714 2.62371 14.0083C2.77581 14.1452 2.98874 14.2136 3.26252 14.2136H4.22075V16.1985H2.64652Z" fill="white"/>
</svg>
