<svg width="25" height="25" viewBox="0 0 25 25" fill="none" xmlns="http://www.w3.org/2000/svg">
<g clip-path="url(#clip0_97_6347)">
<path d="M9.76626 12.8127L11.7973 14.0086L14.4883 9.43876M15.4857 5.30584C15.7558 5.66464 16.1573 5.90149 16.602 5.96432L18.1608 6.18319C18.6057 6.24565 19.0075 6.48229 19.2779 6.84104C19.5484 7.19979 19.6652 7.65126 19.6027 8.09615L19.3841 9.65394C19.3216 10.099 19.4383 10.551 19.7095 10.9095L20.6553 12.1656C20.7893 12.3432 20.887 12.5456 20.9428 12.761C20.9986 12.9764 21.0113 13.2007 20.9804 13.4211C20.9495 13.6415 20.8754 13.8536 20.7625 14.0453C20.6495 14.2371 20.4999 14.4047 20.3222 14.5386L19.0661 15.4855C18.7073 15.7556 18.4704 16.1571 18.4076 16.6018L18.1888 18.1607C18.1263 18.6056 17.8897 19.0074 17.531 19.2778C17.1722 19.5483 16.7208 19.6651 16.2759 19.6026L14.7182 19.3839C14.2734 19.3219 13.8222 19.439 13.4637 19.7095L12.2065 20.6562C11.8479 20.9262 11.3968 21.0428 10.9523 20.9804C10.5078 20.918 10.1062 20.6817 9.83577 20.3234L8.88794 19.0659C8.61785 18.7071 8.21632 18.4703 7.77166 18.4075L6.21279 18.1886C5.76811 18.1262 5.36642 17.8897 5.096 17.5312C4.82559 17.1727 4.70858 16.7215 4.77071 16.2768L4.98939 14.719C5.05143 14.2742 4.9343 13.8229 4.66375 13.4645L3.7172 12.2061C3.5832 12.0284 3.48551 11.8261 3.42972 11.6106C3.37394 11.3952 3.36115 11.1709 3.39208 10.9505C3.42302 10.7301 3.49707 10.518 3.61002 10.3263C3.72296 10.1345 3.87258 9.96693 4.05032 9.83304L5.30644 8.88617C5.66491 8.6163 5.90166 8.21522 5.96472 7.77097L6.18355 6.21206C6.246 5.76718 6.48262 5.36532 6.84136 5.09491C7.20009 4.82449 7.65155 4.70766 8.09643 4.77013L9.65417 4.98884C10.0989 5.05089 10.5502 4.93376 10.9086 4.66321L12.1668 3.71777C12.5255 3.44747 12.9769 3.3307 13.4217 3.39315C13.8665 3.4556 14.2682 3.69215 14.5386 4.05079L15.4865 5.30824L15.4857 5.30584Z" stroke="#1FC16B" stroke-width="1.5" stroke-linecap="round" stroke-linejoin="round"/>
</g>
<defs>
<clipPath id="clip0_97_6347">
<rect width="20" height="20" fill="white" transform="translate(0 5.01048) rotate(-14.5085)"/>
</clipPath>
</defs>
</svg>
