<svg width="41" height="37" viewBox="0 0 41 37" fill="none" xmlns="http://www.w3.org/2000/svg">
<path fill-rule="evenodd" clip-rule="evenodd" d="M9 11C9 4.95 14.175 0 20.5 0C26.825 0 32 4.95 32 11C32 17.05 26.825 22 20.5 22C14.175 22 9 17.05 9 11ZM20.5 16.5C23.6625 16.5 26.25 14.025 26.25 11C26.25 7.975 23.6625 5.5 20.5 5.5C17.3375 5.5 14.75 7.975 14.75 11C14.75 14.025 17.3375 16.5 20.5 16.5Z" fill="#1677FF"/>
<path d="M7.94973 27.1439V36.8561H6.18312V32.5396H1.76661V36.8561H0V27.1439H1.76661V31.1727H6.18312V27.1439H7.94973ZM15.8259 31.1727V32.5396H11.7774V35.4892H16.4883V36.8561H10.0108V27.1439H16.4883V28.5108H11.7774V31.1727H15.8259ZM17.8869 27.1439H20.0952L22.9659 34.6259L25.8366 27.1439H28.1185V36.8561H26.3519V33.6907L26.5727 29.3741L23.6284 36.8561H22.377L19.4327 29.3741L19.5799 33.6907V36.8561H17.8869V27.1439ZM31.9461 27.1439V36.8561H30.2531V27.1439H31.9461ZM39.2334 34.3381C39.2334 33.9065 39.0862 33.5947 38.7917 33.4029C38.4973 33.1631 37.933 32.9233 37.0987 32.6835C36.3136 32.4437 35.6756 32.1799 35.1849 31.8921C34.3016 31.3166 33.86 30.5971 33.86 29.7338C33.86 28.9185 34.1789 28.271 34.8169 27.7914C35.5039 27.2638 36.3627 27 37.3932 27C38.0802 27 38.6936 27.1199 39.2334 27.3597C39.7732 27.6475 40.1903 28.0072 40.4847 28.4389C40.8282 28.9185 41 29.4461 41 30.0216H39.2334C39.2334 29.494 39.0862 29.0863 38.7917 28.7986C38.4482 28.5108 37.982 28.3669 37.3932 28.3669C36.8043 28.3669 36.3627 28.4868 36.0682 28.7266C35.7247 28.9664 35.553 29.3022 35.553 29.7338C35.553 30.0696 35.7247 30.3573 36.0682 30.5971C36.4117 30.8369 36.9761 31.0768 37.7612 31.3166C38.5464 31.5084 39.1598 31.7482 39.6014 32.036C40.0922 32.3238 40.4357 32.6595 40.632 33.0432C40.8773 33.4269 41 33.8585 41 34.3381C41 35.1535 40.681 35.801 40.0431 36.2806C39.4051 36.7602 38.5464 37 37.4668 37C36.7307 37 36.0682 36.8801 35.4794 36.6403C34.8414 36.3525 34.3752 35.9928 34.0808 35.5612C33.7373 35.0815 33.5655 34.53 33.5655 33.9065H35.2585C35.2585 34.482 35.4548 34.9137 35.8474 35.2015C36.1909 35.4892 36.7307 35.6331 37.4668 35.6331C38.0557 35.6331 38.4973 35.5372 38.7917 35.3453C39.0862 35.1055 39.2334 34.7698 39.2334 34.3381Z" fill="black"/>
</svg>
