<svg width="170" height="230" viewBox="0 0 170 230" fill="none" xmlns="http://www.w3.org/2000/svg">
<mask id="path-1-inside-1_97_6308" fill="white">
<path d="M0 19.2C0 12.4794 0 9.11905 1.30792 6.55211C2.4584 4.29417 4.29417 2.4584 6.55211 1.30792C9.11905 0 12.4794 0 19.2 0H150.8C157.521 0 160.881 0 163.448 1.30792C165.706 2.4584 167.542 4.29417 168.692 6.55211C170 9.11905 170 12.4794 170 19.2V210.8C170 217.521 170 220.881 168.692 223.448C167.542 225.706 165.706 227.542 163.448 228.692C160.881 230 157.521 230 150.8 230H19.2C12.4794 230 9.11905 230 6.55211 228.692C4.29417 227.542 2.4584 225.706 1.30792 223.448C0 220.881 0 217.521 0 210.8V19.2Z"/>
</mask>
<path d="M0 19.2C0 12.4794 0 9.11905 1.30792 6.55211C2.4584 4.29417 4.29417 2.4584 6.55211 1.30792C9.11905 0 12.4794 0 19.2 0H150.8C157.521 0 160.881 0 163.448 1.30792C165.706 2.4584 167.542 4.29417 168.692 6.55211C170 9.11905 170 12.4794 170 19.2V210.8C170 217.521 170 220.881 168.692 223.448C167.542 225.706 165.706 227.542 163.448 228.692C160.881 230 157.521 230 150.8 230H19.2C12.4794 230 9.11905 230 6.55211 228.692C4.29417 227.542 2.4584 225.706 1.30792 223.448C0 220.881 0 217.521 0 210.8V19.2Z" fill="white" fill-opacity="0.6"/>
<path d="M0 12C0 4.26801 6.26801 -2 14 -2H156C163.732 -2 170 4.26801 170 12C170 6.47715 164.627 2 158 2H12C5.37258 2 0 6.47715 0 12ZM0 12M170 230H0H170M170 230M0 230V0V230M0 230M170 0V230V0" fill="#88E24E" mask="url(#path-1-inside-1_97_6308)"/>
<rect x="16" y="16" width="62" height="8" rx="4" fill="#A4A4A4"/>
<rect x="16" y="33" width="138" height="8" rx="4" fill="#1FC16B" fill-opacity="0.1"/>
<rect x="16" y="50" width="104" height="8" rx="4" fill="#FB3748" fill-opacity="0.1"/>
<rect x="16" y="67" width="76" height="8" rx="4" fill="#FB3748" fill-opacity="0.1"/>
<rect x="16" y="84" width="101" height="8" rx="4" fill="#1FC16B" fill-opacity="0.1"/>
<rect x="16" y="101" width="138" height="8" rx="4" fill="#FB3748" fill-opacity="0.1"/>
<rect x="16" y="118" width="42" height="8" rx="4" fill="#E8E8E8"/>
<rect x="16" y="135" width="65" height="8" rx="4" fill="#FB3748" fill-opacity="0.1"/>
<rect x="16" y="152" width="107" height="8" rx="4" fill="#E8E8E8"/>
<rect x="16" y="206" width="62" height="8" rx="4" fill="#E8E8E8"/>
</svg>
