<svg width="50" height="28" viewBox="0 0 50 28" fill="none" xmlns="http://www.w3.org/2000/svg">
<mask id="mask0_97_6377" style="mask-type:luminance" maskUnits="userSpaceOnUse" x="0" y="0" width="50" height="28">
<path d="M45.5533 0L0 11.5713L3.93915 27.0788L49.4925 15.5075L45.5533 0Z" fill="white"/>
</mask>
<g mask="url(#mask0_97_6377)">
<path d="M2.94767 10.9718L40.4826 1.4373C40.9152 1.3274 41.3432 1.4127 41.6487 1.70916L47.0568 7.05538C47.475 7.47569 47.5759 8.0873 47.2818 8.68857L43.5287 16.3618C43.322 16.7745 42.9932 17.0798 42.5606 17.1897L5.1387 26.6954C4.38801 26.8861 3.68879 26.4263 3.58606 25.6488L1.80283 12.7036C1.69679 11.913 2.19698 11.1624 2.94767 10.9718Z" fill="#25E8FF"/>
<path d="M23.3699 10.3225L22.5742 15.3531L20.4097 11.0745L18.4105 11.5823L21.8602 17.6975L21.3682 20.1111L23.3417 19.6098L25.318 9.82768L23.3699 10.3225ZM6.72054 23.8318L8.51463 23.3761L8.17998 20.8235C8.51853 20.9748 9.10724 21.0905 9.7736 20.9212C11.8497 20.3939 12.6421 18.197 12.1227 16.1519C11.6798 14.4084 10.5628 13.3943 9.05061 13.7784C8.33291 13.9607 7.73936 14.3627 7.3461 14.9091L7.28697 14.4078L5.54411 14.8505L6.72054 23.8318ZM8.00749 19.4999L7.58566 16.1741C7.89017 15.7618 8.29249 15.5201 8.68033 15.4354C9.45253 15.2533 10.0353 15.7751 10.285 16.7582C10.608 18.0298 10.2309 19.2839 9.12879 19.5639C8.78276 19.6518 8.35553 19.6347 8.00749 19.4999ZM12.9749 18.0566C13.2318 19.1218 14.2974 19.7721 15.5918 19.4434C16.5017 19.2122 17.0682 18.6497 17.3427 18.1194L17.4356 18.8075L19.1785 18.3648L18.6989 14.7048C18.4578 12.8961 17.531 11.6104 15.3268 12.1703C14.4296 12.3982 13.3937 12.8846 12.904 13.4276L13.0975 14.9414C13.5051 14.5588 14.3465 14.0043 15.1923 13.7894C16.2047 13.5323 16.6949 13.9579 16.7962 14.5182L15.7197 14.7916C14.1563 15.1887 12.5315 16.2574 12.9749 18.0566ZM14.7452 17.4535C14.5654 16.7456 15.3061 16.2783 16.1391 16.0667L16.9849 15.8519L17.1265 16.9463C16.841 17.3258 16.2767 17.7901 15.7385 17.9268C15.2515 18.0505 14.8484 17.8599 14.7452 17.4535ZM36.47 10.7767C36.8606 12.4219 38.413 13.6464 40.7967 13.0409C41.6425 12.8261 42.3169 12.4733 42.8544 11.9042L42.5896 10.3247C42.1475 10.786 41.4095 11.2106 40.7175 11.3864C39.8076 11.6175 38.8842 11.4194 38.4138 10.5342L42.8478 9.40789C42.8686 9.22116 42.8167 8.80171 42.7168 8.40842C42.2772 6.67808 41.022 5.65719 39.0998 6.14546C37.1775 6.63375 35.8463 8.21396 36.47 10.7767ZM38.1436 9.4166C38.1032 8.50584 38.5884 7.83832 39.3445 7.64626C40.0879 7.45744 40.6206 7.78268 40.7971 8.47742C40.8171 8.55612 40.8404 8.64787 40.8475 8.72975L38.1436 9.4166ZM28.4438 16.0112L27.8145 11.0635C28.1419 10.6873 28.5338 10.3505 28.9183 10.2529C29.4181 10.1259 29.7582 10.4443 29.8477 11.1193L30.4173 15.51L32.2243 15.051L31.606 10.254L31.5855 10.1196C31.9129 9.74333 32.3143 9.39023 32.6987 9.29258C33.1985 9.16562 33.5386 9.484 33.6282 10.1589L34.1978 14.5497L36.0048 14.0907L35.3865 9.29365C35.2106 7.95678 34.3572 7.33625 33.191 7.63249C32.3837 7.83756 31.645 8.52757 31.1782 9.10668C30.7881 8.59174 30.1666 8.40073 29.4106 8.59278C28.6929 8.77508 28.0206 9.35059 27.5438 9.89033L27.4709 9.2809L25.7793 9.71059L26.6369 16.4703L28.4438 16.0112Z" fill="black"/>
</g>
</svg>
