<svg width="17" height="14" viewBox="0 0 17 14" fill="none" xmlns="http://www.w3.org/2000/svg">
<path d="M4.9149 5.78247C4.92999 5.51265 4.96593 5.24059 5.02394 4.96813C5.63731 2.08718 8.48538 0.252221 11.3853 0.86963C14.2852 1.48704 16.1388 4.32302 15.5254 7.20396C15.3868 7.85476 15.1343 8.45218 14.7928 8.98001C14.7219 9.08963 14.6864 9.14444 14.6662 9.18882C14.6461 9.23279 14.6352 9.26441 14.6241 9.31143C14.6128 9.35889 14.6081 9.41281 14.5986 9.52064L14.4071 11.7089C14.3864 11.9458 14.376 12.0642 14.3198 12.1399C14.2705 12.2063 14.1983 12.252 14.1172 12.2681C14.0247 12.2865 13.9132 12.2451 13.6903 12.1624L11.6782 11.4158C11.5731 11.3768 11.5206 11.3573 11.4711 11.347C11.4222 11.3369 11.3876 11.3333 11.3377 11.3332C11.2872 11.3331 11.2205 11.343 11.0872 11.363C10.4653 11.4561 9.816 11.4413 9.16406 11.3025C8.89138 11.2444 8.62795 11.1667 8.37495 11.0713M4.42192 13.0193C6.35519 13.4309 8.26426 12.1589 8.68596 10.1783C9.10765 8.1976 7.88228 6.2583 5.94901 5.84669C4.01574 5.43508 2.10667 6.70705 1.68498 8.6877C1.60021 9.08583 1.582 9.4823 1.62271 9.86502C1.63991 10.0268 1.64852 10.1077 1.64563 10.1611C1.64261 10.2168 1.63764 10.2474 1.62288 10.3013C1.60875 10.3529 1.58312 10.4091 1.53186 10.5216L0.749839 12.2374L2.75939 12.3865C2.86907 12.3947 2.92391 12.3987 2.97039 12.4089C3.01932 12.4197 3.04476 12.4279 3.09078 12.4477C3.13448 12.4665 3.19723 12.5049 3.32273 12.5817C3.6534 12.784 4.02256 12.9342 4.42192 13.0193Z" stroke="#88E24E" stroke-width="1.5" stroke-linecap="round" stroke-linejoin="round"/>
</svg>
