<svg width="15" height="14" viewBox="0 0 15 14" fill="none" xmlns="http://www.w3.org/2000/svg">
<path d="M6.55562 1.29912C6.70928 0.987826 6.78611 0.832179 6.89041 0.78245C6.98115 0.739183 7.08658 0.739183 7.17732 0.78245C7.28162 0.832179 7.35845 0.987826 7.51211 1.29912L8.96989 4.25243C9.01526 4.34433 9.03794 4.39028 9.07109 4.42596C9.10044 4.45755 9.13563 4.48314 9.17473 4.50132C9.21889 4.52186 9.26959 4.52927 9.371 4.54409L12.6318 5.02071C12.9752 5.0709 13.1469 5.096 13.2264 5.17987C13.2955 5.25284 13.328 5.35311 13.3149 5.45276C13.2997 5.56729 13.1754 5.68836 12.9268 5.9305L10.5682 8.22785C10.4946 8.29947 10.4579 8.33528 10.4341 8.37788C10.4131 8.41561 10.3997 8.45705 10.3945 8.49991C10.3886 8.54832 10.3973 8.5989 10.4146 8.70007L10.9712 11.945C11.0299 12.2872 11.0592 12.4584 11.0041 12.5599C10.9561 12.6483 10.8708 12.7102 10.7719 12.7286C10.6583 12.7496 10.5046 12.6688 10.1973 12.5072L7.28211 10.9741C7.19128 10.9264 7.14586 10.9025 7.09802 10.8931C7.05565 10.8848 7.01208 10.8848 6.96972 10.8931C6.92187 10.9025 6.87645 10.9264 6.78563 10.9741L3.87047 12.5072C3.56313 12.6688 3.40946 12.7496 3.29584 12.7286C3.19698 12.7102 3.11167 12.6483 3.06368 12.5599C3.00852 12.4584 3.03787 12.2872 3.09657 11.945L3.65311 8.70007C3.67046 8.5989 3.67914 8.54832 3.67327 8.49991C3.66807 8.45705 3.6546 8.41561 3.63359 8.37788C3.60987 8.33528 3.57311 8.29947 3.49958 8.22785L1.14089 5.93049C0.892296 5.68836 0.767997 5.56729 0.752872 5.45276C0.739712 5.35311 0.772223 5.25284 0.841355 5.17987C0.920811 5.096 1.0925 5.0709 1.43588 5.02071L4.69673 4.54409C4.79814 4.52927 4.84884 4.52186 4.893 4.50132C4.9321 4.48314 4.9673 4.45755 4.99664 4.42596C5.02979 4.39028 5.05247 4.34433 5.09784 4.25243L6.55562 1.29912Z" stroke="#F9C700" stroke-width="1.5" stroke-linecap="round" stroke-linejoin="round"/>
</svg>
